<svg width="62" height="75" viewBox="0 0 62 75" fill="none" xmlns="http://www.w3.org/2000/svg">
<path d="M42.4283 56.1409H28.1984L30.7623 44.8027H39.8644L42.4283 56.1409Z" fill="#EFEFEF"/>
<path d="M9.53491 40.7861V46.1449C9.53491 47.5858 10.6829 48.7538 12.0988 48.7538H58.5277C59.9438 48.7538 61.0917 47.5857 61.0917 46.1449V40.7861H9.53491Z" fill="#F7F7F7"/>
<path d="M57.459 40.7861V46.1449C57.459 47.5858 56.311 48.7538 54.8951 48.7538H58.5279C59.944 48.7538 61.0918 47.5857 61.0918 46.1449V40.7861H57.459Z" fill="#EFEFEF"/>
<path d="M24.7373 62.3315H4.24207V36.4842H24.7373V62.3315Z" fill="#2563EB"/>
<path d="M21.1045 36.4839H24.7373V62.3312H21.1045V36.4839Z" fill="white"/>
<path d="M21.7465 70.9403V48.0081C21.7465 46.9792 22.5674 46.145 23.58 46.145H33.4952C34.5077 46.145 35.3286 46.9792 35.3286 48.0081V70.9403C35.3286 71.9692 34.5077 72.8034 33.4952 72.8034H23.58C22.5674 72.8034 21.7465 71.9692 21.7465 70.9403Z" fill="white"/>
<path d="M33.4953 46.145H29.8625C30.8751 46.145 31.696 46.9792 31.696 48.0081V70.9403C31.696 71.9692 30.8751 72.8034 29.8625 72.8034H33.4953C34.5079 72.8034 35.3288 71.9692 35.3288 70.9403V48.0081C35.3288 46.9792 34.5079 46.145 33.4953 46.145Z" fill="#2563EB"/>
<path d="M21.7465 68.8535H35.3288V70.9648C35.3288 71.9803 34.5056 72.8034 33.4901 72.8034H23.5852C22.5697 72.8034 21.7465 71.9803 21.7465 70.9648V68.8535Z" fill="#908FA0" fill-opacity="0.45"/>
<path d="M31.6959 68.8535V70.9648C31.6959 71.9803 30.8727 72.8034 29.8572 72.8034H33.49C34.5055 72.8034 35.3287 71.9803 35.3287 70.9648V68.8535H31.6959Z" fill="#2563EB"/>
<path d="M58.5261 13.187H54.8555C53.7189 13.187 53.6672 15.0327 54.8555 15.0327H58.5261C59.44 15.0327 60.1836 15.7883 60.1836 16.717V39.8628H28.9793V34.0831C28.9793 33.0366 28.1415 32.1852 27.1116 32.1852H10.4431V16.717C10.4431 15.7883 11.1868 15.0327 12.1007 15.0327H49.6484C50.785 15.0327 50.8367 13.187 49.6484 13.187H12.1007C10.1851 13.187 8.62672 14.7706 8.62672 16.717V32.1853H1.86775C0.837848 32.1853 0 33.0367 0 34.0832V67.2753C0 68.322 0.837848 69.1733 1.86775 69.1733H20.8382V70.9645C20.8382 72.1855 21.6307 73.2232 22.7255 73.5869C22.7398 73.5917 22.7539 73.597 22.7684 73.6016C22.7734 73.6032 22.7785 73.6044 22.7833 73.6059C23.0355 73.6839 23.3029 73.7262 23.58 73.7262H33.4951C33.7706 73.7262 34.0365 73.6842 34.2877 73.6071C34.2941 73.6051 34.3006 73.6035 34.3071 73.6014C34.32 73.5974 34.3326 73.5926 34.3455 73.5884C35.4424 73.226 36.2369 72.1871 36.2369 70.9647V57.0632H46.8846C48.0212 57.0632 48.0729 55.2175 46.8846 55.2175H43.1515L41.8984 49.6763H58.5259C60.418 49.6763 61.9999 48.0736 61.9999 46.1463V16.717C62 14.7705 60.4416 13.187 58.5261 13.187ZM60.1836 41.7085V46.1445C60.1836 47.0688 59.4352 47.8305 58.5279 47.8305H36.2308C36.1404 46.3767 34.9483 45.2219 33.4951 45.2219H28.9793V41.7085H60.1836ZM33.4951 47.0677C34.0054 47.0677 34.4205 47.4895 34.4205 48.0079V67.9304H22.6546V48.0079C22.6546 47.4895 23.0697 47.0676 23.58 47.0676H33.4951V47.0677ZM1.81641 67.2755C1.86775 67.2229 1.71796 34.0198 1.86763 34.0312C1.86775 34.031 27.1116 34.031 27.1116 34.031C27.1399 34.031 27.1629 34.0544 27.1629 34.0832V45.222H25.6455V36.4838C25.6455 35.9742 25.2388 35.561 24.7373 35.561H4.24203C3.74046 35.561 3.33383 35.9742 3.33383 36.4838V51.7007C3.33383 52.8555 5.15024 52.9081 5.15024 51.7007V37.4067H23.8291V45.222C22.2563 45.1547 20.8382 46.3537 20.8382 48.008V61.4083H5.15024V56.8049C5.15024 55.6501 3.33383 55.5975 3.33383 56.8049V62.3312C3.33383 62.8409 3.74046 63.2541 4.24203 63.2541H20.8382V67.3276C20.7866 67.2757 1.80551 67.4271 1.81641 67.2755ZM23.5852 71.8804C23.4906 71.8804 23.3994 71.8663 23.3135 71.8404C23.3116 71.8398 23.3097 71.8393 23.3079 71.8388C23.3033 71.8373 23.2988 71.8357 23.2942 71.8342C22.9235 71.7116 22.6547 71.3572 22.6547 70.9402V69.7761H34.4207V70.9402C34.4207 71.3573 34.1519 71.7116 33.7812 71.8344C33.7766 71.8358 33.7721 71.8376 33.7675 71.8389C33.7655 71.8395 33.7636 71.84 33.7617 71.8406C33.6757 71.8665 33.5845 71.8805 33.49 71.8805H23.5852V71.8804ZM41.2878 55.2175H36.2369V49.6763H40.0347L41.2878 55.2175Z" fill="black"/>
<path d="M15.4346 64.3491H13.5448C12.3422 64.3914 12.3432 66.1529 13.5448 66.1948H15.4346C16.6372 66.1525 16.6362 64.3911 15.4346 64.3491Z" fill="black"/>
<path d="M27.737 49.854H29.3382C30.5408 49.8117 30.5398 48.0503 29.3382 48.0083H27.737C26.5344 48.0506 26.5353 49.812 27.737 49.854Z" fill="black"/>
<rect x="27.7832" y="9.70752" width="27.1123" height="11.9237" rx="2" fill="black"/>
<path d="M31.2669 19V11.7273H32.8045V17.7322H35.9224V19H31.2669ZM38.4783 11.7273V19H36.9407V11.7273H38.4783ZM41.0574 11.7273L42.8152 17.2528H42.8826L44.644 11.7273H46.3485L43.8414 19H41.8599L39.3493 11.7273H41.0574ZM47.2239 19V11.7273H52.1245V12.995H48.7615V14.728H51.8723V15.9957H48.7615V17.7322H52.1387V19H47.2239Z" fill="white"/>
</svg>
