<svg width="60" height="53" viewBox="0 0 60 53" fill="none" xmlns="http://www.w3.org/2000/svg">
<g clip-path="url(#clip0_3312_4142)">
<path d="M29.6543 9.87793C36.4246 9.87793 41.9365 15.3881 41.9365 22.1602C41.9365 22.4094 41.9268 22.6578 41.9092 22.9102L41.8721 23.4404L42.3594 23.6504C45.4756 24.9987 47.5224 28.064 47.5225 31.4688C47.5225 36.1872 43.6797 40.0273 38.9629 40.0273H11.0371C6.31859 40.0273 2.47852 36.1873 2.47852 31.4688C2.47853 27.3701 5.39376 23.8971 9.37402 23.1143L9.91113 23.0078L9.97461 22.4639C10.3135 19.5373 12.7534 17.3253 15.6914 17.3252C16.2974 17.3252 16.8984 17.4263 17.4883 17.6289L18.1406 17.8525L18.4189 17.2207C20.3649 12.792 24.7678 9.87805 29.6543 9.87793Z" fill="#2563EB" stroke="black" stroke-width="1.5"/>
</g>
<g clip-path="url(#clip1_3312_4142)">
<path d="M19.2969 36.5394H17.2558C16.5529 36.5394 15.8788 36.2529 15.3817 35.743C14.8847 35.2331 14.6055 34.5415 14.6055 33.8204V27.137C14.6055 26.4159 14.8847 25.7243 15.3817 25.2143C15.8788 24.7044 16.5529 24.418 17.2558 24.418H19.2969C19.9998 24.418 20.6739 24.7044 21.171 25.2143C21.668 25.7243 21.9472 26.4159 21.9472 27.137V33.8218C21.9469 34.5427 21.6675 35.2339 21.1705 35.7435C20.6735 36.2531 19.9996 36.5394 19.2969 36.5394ZM17.2558 25.6662C16.8757 25.6666 16.5113 25.8217 16.2425 26.0974C15.9737 26.3731 15.8225 26.747 15.8222 27.137V33.8218C15.8225 34.2118 15.9737 34.5856 16.2425 34.8614C16.5113 35.1371 16.8757 35.2922 17.2558 35.2926H19.2969C19.677 35.2922 20.0414 35.1371 20.3102 34.8614C20.579 34.5856 20.7302 34.2118 20.7305 33.8218V27.137C20.7302 26.747 20.579 26.3731 20.3102 26.0974C20.0414 25.8217 19.677 25.6666 19.2969 25.6662H17.2558Z" fill="black" stroke="black" stroke-width="0.5"/>
<path d="M28.6641 25.6664H22.6419C22.5609 25.6684 22.4803 25.6538 22.4049 25.6233C22.3295 25.5929 22.2607 25.5473 22.2027 25.4892C22.1447 25.4311 22.0987 25.3617 22.0672 25.2851C22.0357 25.2085 22.0195 25.1262 22.0195 25.043C22.0195 24.9599 22.0357 24.8776 22.0672 24.8009C22.0987 24.7243 22.1447 24.6549 22.2027 24.5968C22.2607 24.5387 22.3295 24.4931 22.4049 24.4627C22.4803 24.4323 22.5609 24.4176 22.6419 24.4196H28.6641C28.8227 24.4235 28.9736 24.4909 29.0845 24.6074C29.1953 24.7239 29.2574 24.8802 29.2574 25.043C29.2574 25.2058 29.1953 25.3622 29.0845 25.4786C28.9736 25.5951 28.8227 25.6625 28.6641 25.6664Z" fill="black" stroke="black" stroke-width="0.5"/>
<path d="M25.7057 36.5397C25.6259 36.5398 25.5468 36.5237 25.4731 36.4924C25.3993 36.4611 25.3323 36.4152 25.2759 36.3573C25.2194 36.2995 25.1747 36.2307 25.1441 36.1551C25.1136 36.0795 25.0978 35.9984 25.0978 35.9165V25.1585C25.0959 25.0754 25.1102 24.9927 25.1398 24.9154C25.1695 24.838 25.2139 24.7675 25.2706 24.708C25.3272 24.6485 25.3948 24.6012 25.4695 24.5689C25.5442 24.5366 25.6244 24.52 25.7055 24.52C25.7865 24.52 25.8668 24.5366 25.9415 24.5689C26.0161 24.6012 26.0838 24.6485 26.1404 24.708C26.197 24.7675 26.2415 24.838 26.2711 24.9154C26.3008 24.9927 26.3151 25.0754 26.3131 25.1585V35.9165C26.3131 35.9984 26.2974 36.0794 26.2669 36.155C26.2364 36.2306 26.1916 36.2993 26.1352 36.3572C26.0788 36.4151 26.0118 36.461 25.9381 36.4923C25.8644 36.5236 25.7854 36.5397 25.7057 36.5397Z" fill="black" stroke="black" stroke-width="0.5"/>
<path d="M36.5284 25.6664H30.5062C30.4252 25.6684 30.3446 25.6538 30.2691 25.6233C30.1937 25.5929 30.125 25.5473 30.067 25.4892C30.009 25.4311 29.9629 25.3617 29.9315 25.2851C29.9 25.2085 29.8838 25.1262 29.8838 25.043C29.8838 24.9599 29.9 24.8776 29.9315 24.8009C29.9629 24.7243 30.009 24.6549 30.067 24.5968C30.125 24.5387 30.1937 24.4931 30.2691 24.4627C30.3446 24.4323 30.4252 24.4176 30.5062 24.4196H36.5284C36.687 24.4235 36.8379 24.4909 36.9487 24.6074C37.0596 24.7239 37.1216 24.8802 37.1216 25.043C37.1216 25.2058 37.0596 25.3622 36.9487 25.4786C36.8379 25.5951 36.687 25.6625 36.5284 25.6664Z" fill="black" stroke="black" stroke-width="0.5"/>
<path d="M33.4662 36.5395C33.3051 36.5395 33.1505 36.4738 33.0366 36.3569C32.9226 36.2401 32.8585 36.0816 32.8584 35.9162V25.1583C32.8584 24.9929 32.9224 24.8343 33.0364 24.7173C33.1504 24.6004 33.305 24.5347 33.4662 24.5347C33.6274 24.5347 33.782 24.6004 33.896 24.7173C34.01 24.8343 34.0741 24.9929 34.0741 25.1583V35.9162C34.074 36.0816 34.0099 36.2401 33.8959 36.3569C33.7819 36.4738 33.6274 36.5395 33.4662 36.5395Z" fill="black" stroke="black" stroke-width="0.5"/>
<path d="M40.0399 48.181H14.8292C13.7322 48.1809 12.6801 47.7338 11.9044 46.9379C11.1287 46.1421 10.6928 45.0628 10.6927 43.9373V43.1387H9.3078V43.9373C9.30843 45.4399 9.89068 46.8807 10.9265 47.9429C11.9624 49.0051 13.367 49.6018 14.8316 49.6018H40.0399C40.1322 49.6041 40.2241 49.5874 40.31 49.5527C40.396 49.518 40.4743 49.4661 40.5404 49.3999C40.6064 49.3337 40.659 49.2546 40.6948 49.1673C40.7307 49.08 40.7491 48.9862 40.7491 48.8914C40.7491 48.7967 40.7307 48.7029 40.6948 48.6155C40.659 48.5282 40.6064 48.4491 40.5404 48.383C40.4743 48.3168 40.396 48.2648 40.31 48.2301C40.2241 48.1954 40.1322 48.1787 40.0399 48.181Z" fill="black" stroke="black" stroke-width="0.5"/>
<path d="M10.6927 5.66692C10.6935 4.54144 11.1294 3.46223 11.9049 2.66616C12.6804 1.8701 13.7321 1.42221 14.8292 1.42081H46.7225C47.8195 1.42221 48.8712 1.8701 49.6467 2.66616C50.4222 3.46223 50.8582 4.54144 50.8589 5.66692V35.7681H52.2439V5.66692C52.2439 2.54115 49.7653 0 46.7225 0H14.8292C11.7848 0 9.3078 2.54115 9.3078 5.66692V22.6991L10.6927 21.5123V5.66692Z" fill="black" stroke="black" stroke-width="0.5"/>
<path d="M51.2782 8.99698H10.1622C9.98143 8.99254 9.80952 8.91574 9.68319 8.783C9.55686 8.65025 9.48615 8.47209 9.48615 8.28658C9.48615 8.10106 9.55686 7.9229 9.68319 7.79015C9.80952 7.65741 9.98143 7.58062 10.1622 7.57617H51.2782C51.459 7.58062 51.6309 7.65741 51.7572 7.79015C51.8836 7.9229 51.9543 8.10106 51.9543 8.28658C51.9543 8.47209 51.8836 8.65025 51.7572 8.783C51.6309 8.91574 51.459 8.99254 51.2782 8.99698Z" fill="black" stroke="black" stroke-width="0.5"/>
<path d="M47.64 3.78763H45.9619C45.7782 3.78774 45.6021 3.86265 45.4723 3.9959C45.3425 4.12916 45.2696 4.30984 45.2696 4.49824C45.2696 4.68663 45.3425 4.86731 45.4723 5.00057C45.6021 5.13382 45.7782 5.20874 45.9619 5.20884H47.6567C47.7498 5.2088 47.8419 5.18951 47.9276 5.15213C48.0132 5.11475 48.0906 5.06004 48.1552 4.99128C48.2198 4.92252 48.2702 4.84111 48.3034 4.75191C48.3367 4.66272 48.352 4.56757 48.3486 4.47214C48.3394 4.28631 48.2605 4.11132 48.1285 3.98375C47.9964 3.85619 47.8214 3.78592 47.64 3.78763Z" fill="#2563EB" stroke="#2563EB" stroke-width="0.5"/>
<path d="M42.7962 3.78764H41.118C40.9345 3.78796 40.7587 3.86297 40.629 3.9962C40.4994 4.12943 40.4266 4.30999 40.4266 4.49824C40.4266 4.68664 40.4995 4.86732 40.6293 5.00058C40.7591 5.13383 40.9352 5.20874 41.1188 5.20885H42.8137C42.9068 5.20886 42.999 5.18961 43.0846 5.15225C43.1703 5.11489 43.2477 5.06019 43.3123 4.99141C43.3769 4.92264 43.4273 4.8412 43.4605 4.75198C43.4937 4.66276 43.5091 4.56759 43.5056 4.47215C43.4964 4.28617 43.4174 4.11106 43.2852 3.98347C43.1529 3.85589 42.9777 3.78571 42.7962 3.78764Z" fill="#2563EB" stroke="#2563EB" stroke-width="0.5"/>
<path d="M37.9524 3.78763H36.2746C36.0909 3.78763 35.9147 3.8625 35.7848 3.99576C35.6549 4.12903 35.5819 4.30977 35.5819 4.49824C35.5819 4.6867 35.6549 4.86745 35.7848 5.00071C35.9147 5.13398 36.0909 5.20884 36.2746 5.20884H37.9691C38.0621 5.20886 38.1543 5.1896 38.24 5.15224C38.3256 5.11488 38.4031 5.06018 38.4677 4.9914C38.5323 4.92263 38.5827 4.8412 38.6159 4.75198C38.6491 4.66275 38.6644 4.56758 38.6609 4.47214C38.6517 4.28631 38.5728 4.11132 38.4408 3.98375C38.3087 3.85619 38.1337 3.78592 37.9524 3.78763Z" fill="#2563EB" stroke="#2563EB" stroke-width="0.5"/>
<path d="M53.3057 52.9999C53.2148 53 53.1247 52.9817 53.0407 52.946C52.9567 52.9103 52.8804 52.858 52.8161 52.7919L48.7659 48.6376L45.5132 52.3728C45.4311 52.4673 45.3259 52.5376 45.2084 52.5763C45.0909 52.6151 44.9655 52.6209 44.8451 52.5932C44.7247 52.5655 44.6137 52.5053 44.5236 52.4188C44.4334 52.3324 44.3675 52.2227 44.3326 52.1013L38.5986 32.1851C38.5633 32.0626 38.5609 31.9326 38.5917 31.8088C38.6224 31.6849 38.6851 31.5719 38.7731 31.4816C38.8612 31.3912 38.9714 31.3269 39.0921 31.2954C39.2127 31.2639 39.3395 31.2663 39.4589 31.3025L58.8696 37.1887C58.988 37.2245 59.0949 37.2922 59.1793 37.3846C59.2636 37.477 59.3223 37.5909 59.3494 37.7144C59.3764 37.8379 59.3708 37.9666 59.333 38.0872C59.2953 38.2077 59.2268 38.3157 59.1347 38.4L55.4942 41.7337L59.5444 45.8889C59.6742 46.0222 59.7471 46.2029 59.7471 46.3914C59.7471 46.5798 59.6742 46.7605 59.5444 46.8939L53.7953 52.7919C53.7311 52.858 53.6548 52.9103 53.5707 52.946C53.4867 52.9817 53.3967 53 53.3057 52.9999ZM48.7357 46.8922C48.9193 46.8922 49.0954 46.967 49.2253 47.1002L53.3041 51.2847L58.0729 46.3924L53.9936 42.2078C53.9271 42.1394 53.8748 42.0577 53.84 41.9679C53.8053 41.878 53.7887 41.7818 53.7914 41.6852C53.7941 41.5885 53.8159 41.4935 53.8556 41.4058C53.8953 41.3181 53.952 41.2396 54.0222 41.1752L57.2809 38.1904L40.2871 33.0356L45.3098 50.475L48.2207 47.1295C48.2834 47.0574 48.3598 46.9991 48.4452 46.9583C48.5306 46.9175 48.6232 46.895 48.7174 46.8922H48.7357Z" fill="black" stroke="black" stroke-width="0.5"/>
</g>
<defs>
<clipPath id="clip0_3312_4142">
<rect width="48" height="48" fill="white" transform="translate(0 2.95264)"/>
</clipPath>
<clipPath id="clip1_3312_4142">
<rect width="56" height="53" fill="white" transform="translate(3.74707)"/>
</clipPath>
</defs>
</svg>
