<svg width="66" height="66" viewBox="0 0 66 66" fill="none" xmlns="http://www.w3.org/2000/svg">
<g clip-path="url(#clip0_3312_4195)">
<path d="M29.0596 7.86035C22.4499 7.86035 17.2101 12.6753 17.21 18.4287C17.21 18.6401 17.2195 18.8516 17.2363 19.0674L17.2793 19.623L16.7598 19.8252C13.7331 21.0017 11.8096 23.644 11.8096 26.5137C11.8096 30.4836 15.4352 33.8486 20.0596 33.8486H47.0596C51.6856 33.8486 55.3095 30.4836 55.3096 26.5137C55.3096 23.0622 52.5647 20.0433 48.6768 19.3564L48.1338 19.2607L48.0635 18.7139C47.7494 16.2767 45.4543 14.3281 42.5596 14.3281C41.9676 14.3281 41.3812 14.4167 40.8076 14.5938L40.1953 14.7832L39.9131 14.207C38.0557 10.4096 33.8186 7.86035 29.0596 7.86035Z" fill="#2563EB" stroke="black" stroke-width="1.5"/>
</g>
<path d="M31.5176 27.8654C31.3435 27.8654 31.1631 27.8203 31.0019 27.7365C30.6603 27.5496 30.4476 27.1886 30.4476 26.8019V19.0547C30.4476 18.6615 30.6603 18.307 31.0019 18.1201C31.3435 17.9332 31.7625 17.9461 32.0912 18.1523L38.1756 22.0259C38.4849 22.2258 38.6719 22.5609 38.6719 22.9283C38.6719 23.2957 38.4849 23.6308 38.1756 23.8306L32.0912 27.7043C31.9172 27.8074 31.7174 27.8654 31.5176 27.8654ZM31.5176 18.9515C31.4982 18.9515 31.4853 18.958 31.466 18.9644C31.4338 18.9838 31.4144 19.016 31.4144 19.0547V26.8019C31.4144 26.8406 31.4338 26.8728 31.466 26.8922C31.4982 26.9115 31.5369 26.9115 31.5691 26.8857L37.6535 23.0121C37.6922 22.9863 37.6986 22.9541 37.6986 22.9283C37.6986 22.9025 37.6922 22.8703 37.6535 22.8445L31.5691 18.9709C31.5562 18.958 31.5369 18.9515 31.5176 18.9515Z" fill="white" stroke="white" stroke-width="0.9"/>
<path d="M17.1001 51.286C17.1001 53.8967 14.9837 56.0132 12.3729 56.0132H12.1953C9.58458 56.0132 7.46814 53.8967 7.46814 51.286C7.46814 48.6752 9.58458 46.5588 12.1953 46.5588H12.3729C14.9837 46.5588 17.1001 48.6752 17.1001 51.286Z" fill="#2563EB"/>
<path d="M37.8157 51.014C37.8157 53.6248 35.6992 55.7412 33.0885 55.7412H32.9109C30.3002 55.7412 28.1837 53.6248 28.1837 51.014C28.1837 48.4032 30.3002 46.2868 32.9109 46.2868H33.0885C35.6992 46.2868 37.8157 48.4032 37.8157 51.014Z" fill="#2563EB"/>
<path d="M58.5305 51.014C58.5305 53.6248 56.4141 55.7412 53.8033 55.7412H53.6258C51.015 55.7412 48.8986 53.6248 48.8986 51.014C48.8986 48.4032 51.015 46.2868 53.6258 46.2868H53.8033C56.4141 46.2868 58.5305 48.4032 58.5305 51.014Z" fill="#2563EB"/>
<path d="M12.2848 56.1626C9.80339 56.1626 7.88269 53.3653 7.88269 50.9612C7.88269 48.5313 9.85496 46.5591 12.2848 46.5591C14.7147 46.5591 16.687 48.5313 16.687 50.9612C16.687 53.3653 14.7663 56.1626 12.2848 56.1626ZM12.2848 47.5259C10.3899 47.5259 8.84949 49.0663 8.84949 50.9612C8.84949 51.9216 9.24265 52.998 9.89363 53.8358C10.5768 54.7124 11.4276 55.1958 12.2848 55.1958C13.1421 55.1958 13.9864 54.7124 14.6761 53.8358C15.3335 52.998 15.7202 51.9216 15.7202 50.9612C15.7202 49.0663 14.1798 47.5259 12.2848 47.5259Z" fill="black" stroke="black" stroke-width="0.9"/>
<path d="M18.3821 65.1473H6.19399C5.73638 65.1473 5.31098 64.9475 5.02095 64.593C4.73091 64.2385 4.61489 63.7809 4.70513 63.3361L5.40122 59.8105C5.6397 58.6053 6.5227 57.6449 7.7022 57.3098L10.5768 56.4912H14.0122L16.8868 57.3098C18.0663 57.6449 18.9493 58.6053 19.1877 59.8105L19.8838 63.3361C19.9741 63.7809 19.8581 64.2385 19.568 64.593C19.2651 64.9475 18.8397 65.1473 18.3821 65.1473ZM10.7057 57.4516L7.96001 58.2379C7.12856 58.4764 6.50981 59.1467 6.34223 59.9975L5.64614 63.523C5.61391 63.6842 5.65903 63.8518 5.76216 63.9807C5.86528 64.1096 6.01997 64.1805 6.18755 64.1805H18.3821C18.5497 64.1805 18.7043 64.1096 18.8075 63.9807C18.9106 63.8518 18.9557 63.6842 18.9235 63.523L18.2274 59.9975C18.0598 59.1531 17.4411 58.4764 16.6096 58.2379L13.8639 57.4516H10.7057Z" fill="black" stroke="black" stroke-width="0.9"/>
<path d="M53.7153 56.1621C51.2338 56.1621 49.3131 53.3648 49.3131 50.9607C49.3131 48.5309 51.2854 46.5586 53.7153 46.5586C54.8883 46.5586 55.9969 47.0162 56.8283 47.8477C57.6598 48.6791 58.1174 49.7812 58.1174 50.9607C58.1174 53.3648 56.1903 56.1621 53.7153 56.1621ZM53.7153 47.5254C51.8203 47.5254 50.2799 49.0658 50.2799 50.9607C50.2799 51.9211 50.6731 52.9975 51.324 53.8354C52.0073 54.7119 52.858 55.1953 53.7153 55.1953C54.5725 55.1953 55.4168 54.7119 56.1065 53.8354C56.7639 52.9975 57.1506 51.9211 57.1506 50.9607C57.1506 50.0455 56.7961 49.1818 56.1451 48.5309C55.4942 47.8799 54.6305 47.5254 53.7153 47.5254Z" fill="black" stroke="black" stroke-width="0.9"/>
<path d="M59.8062 65.1473H47.6181C47.1604 65.1473 46.7351 64.9475 46.445 64.593C46.155 64.2385 46.039 63.7809 46.1292 63.3361L46.8253 59.8105C47.0638 58.6053 47.9468 57.6449 49.1263 57.3098L52.0009 56.4912H55.4298L58.3044 57.3098C59.4839 57.6449 60.3669 58.6053 60.6054 59.8105L61.3015 63.3361C61.3917 63.7809 61.2757 64.2385 60.9856 64.593C60.6892 64.9475 60.2638 65.1473 59.8062 65.1473ZM52.1298 57.4516L49.3905 58.2379C48.5591 58.4764 47.9403 59.1467 47.7728 59.9975L47.0767 63.523C47.0444 63.6842 47.0895 63.8518 47.1927 63.9807C47.2958 64.1096 47.4505 64.1805 47.6181 64.1805H59.8126C59.9802 64.1805 60.1349 64.1096 60.238 63.9807C60.3411 63.8518 60.3862 63.6842 60.354 63.523L59.6579 59.9975C59.4903 59.1531 58.8716 58.4764 58.0401 58.2379L55.2944 57.4516H52.1298Z" fill="black" stroke="black" stroke-width="0.9"/>
<path d="M33 56.1621C30.5186 56.1621 28.5979 53.3648 28.5979 50.9607C28.5979 48.5309 30.5702 46.5586 33 46.5586C35.4299 46.5586 37.4022 48.5309 37.4022 50.9607C37.4022 53.3648 35.4815 56.1621 33 56.1621ZM33 47.5254C31.1051 47.5254 29.5647 49.0658 29.5647 50.9607C29.5647 51.9211 29.9579 52.9975 30.6088 53.8354C31.292 54.7119 32.1428 55.1953 33 55.1953C33.8573 55.1953 34.7016 54.7119 35.3913 53.8354C36.0487 52.9975 36.4354 51.9211 36.4354 50.9607C36.4354 49.0658 34.895 47.5254 33 47.5254Z" fill="black" stroke="black" stroke-width="0.9"/>
<path d="M39.0973 65.1473H26.9027C26.4451 65.1473 26.0197 64.9475 25.7297 64.593C25.4396 64.2385 25.3236 63.7809 25.4139 63.3361L26.11 59.8105C26.3484 58.6053 27.2314 57.6449 28.4109 57.3098L31.2855 56.4912H34.7209L37.5955 57.3098C38.775 57.6449 39.658 58.6053 39.8965 59.8105L40.5926 63.3361C40.6828 63.7809 40.5668 64.2385 40.2768 64.593C39.9803 64.9475 39.5549 65.1473 39.0973 65.1473ZM31.4209 57.4516L28.6816 58.2379C27.8502 58.4764 27.2314 59.1467 27.0639 59.9975L26.3613 63.523C26.3291 63.6842 26.3742 63.8518 26.4773 63.9807C26.5805 64.1096 26.7352 64.1805 26.9027 64.1805H39.0973C39.2648 64.1805 39.4195 64.1096 39.5227 63.9807C39.6258 63.8518 39.6709 63.6842 39.6387 63.523L38.9426 59.9975C38.775 59.1531 38.1562 58.4764 37.3248 58.2379L34.5791 57.4516H31.4209Z" fill="black" stroke="black" stroke-width="0.9"/>
<path d="M33.4834 44.0127H32.5166V42.4658H33.4834V44.0127ZM33.4834 40.9189H32.5166V39.3721H33.4834V40.9189ZM33.4834 37.8252H32.5166V36.2783H33.4834V37.8252Z" fill="black" stroke="black" stroke-width="0.9"/>
<path d="M50.6666 44.7282L49.4098 43.8259L49.9705 43.0395L51.2274 43.9419L50.6666 44.7282ZM48.1465 42.93L46.8897 42.0276L47.4504 41.2413L48.7073 42.1437L48.1465 42.93ZM45.6328 41.1317L44.376 40.2294L44.9367 39.4431L46.1936 40.3454L45.6328 41.1317ZM43.1127 39.327L41.8559 38.4247L42.4166 37.6384L43.6735 38.5407L43.1127 39.327ZM40.5991 37.5288L39.3551 36.6394L39.9158 35.853L41.1598 36.7425L40.5991 37.5288Z" fill="black" stroke="black" stroke-width="0.9"/>
<path d="M15.3334 44.7282L14.7727 43.9419L16.0295 43.0395L16.5903 43.8259L15.3334 44.7282ZM17.8536 42.93L17.2928 42.1437L18.5497 41.2413L19.1104 42.0276L17.8536 42.93ZM20.3672 41.1317L19.8065 40.3454L21.0633 39.4431L21.6241 40.2294L20.3672 41.1317ZM22.8874 39.327L22.3266 38.5407L23.5834 37.6384L24.1442 38.4247L22.8874 39.327ZM25.401 37.5288L24.8403 36.7425L26.0842 35.853L26.645 36.6394L25.401 37.5288Z" fill="black" stroke="black" stroke-width="0.9"/>
<defs>
<clipPath id="clip0_3312_4195">
<rect width="45" height="40.4234" fill="white" transform="matrix(-1 0 0 1 56.0596 0.642578)"/>
</clipPath>
</defs>
</svg>
