<svg width="54" height="54" viewBox="0 0 54 54" fill="none" xmlns="http://www.w3.org/2000/svg">
<g clip-path="url(#clip0_3311_3658)">
<path d="M20.0627 13.56L12.9035 6.40075C12.7468 6.24398 12.5607 6.11962 12.3559 6.03477C12.1511 5.94992 11.9317 5.90625 11.71 5.90625C11.4883 5.90625 11.2688 5.94992 11.0641 6.03477C10.8593 6.11962 10.6732 6.24398 10.5165 6.40075L7.53385 9.38341C5.95155 10.9657 5.06262 13.1118 5.06262 15.3496C5.06262 17.5873 5.95155 19.7334 7.53385 21.3157L29.0124 42.7942C30.5947 44.3765 32.7408 45.2655 34.9785 45.2655C37.2162 45.2655 39.3623 44.3765 40.9447 42.7942L43.9273 39.8116C44.0841 39.6549 44.2085 39.4688 44.2933 39.264C44.3782 39.0592 44.4218 38.8397 44.4218 38.6181C44.4218 38.3964 44.3782 38.1769 44.2933 37.9721C44.2085 37.7674 44.0841 37.5813 43.9273 37.4246L36.7681 30.2654C36.4517 29.949 36.0225 29.7713 35.575 29.7713C35.1276 29.7713 34.6984 29.949 34.382 30.2654L31.3985 33.2489C30.9238 33.7234 30.2801 33.99 29.6089 33.99C28.9377 33.99 28.294 33.7234 27.8193 33.2489L17.08 22.5096C16.8449 22.2746 16.6585 21.9955 16.5312 21.6884C16.404 21.3812 16.3385 21.0521 16.3385 20.7196C16.3385 20.3872 16.404 20.058 16.5312 19.7508C16.6585 19.4437 16.8449 19.1646 17.08 18.9296L20.0627 15.9469C20.2195 15.7902 20.3438 15.6042 20.4287 15.3994C20.5135 15.1946 20.5572 14.9751 20.5572 14.7535C20.5572 14.5318 20.5135 14.3123 20.4287 14.1075C20.3438 13.9027 20.2195 13.7167 20.0627 13.56Z" fill="#2053C5" stroke="black" stroke-width="0.5"/>
<path d="M20.0627 13.56L14.6931 8.19037C14.3766 7.87401 13.9475 7.69629 13.5 7.69629C13.0526 7.69629 12.6234 7.87401 12.307 8.19037L9.32346 11.1739C7.74116 12.7562 6.85223 14.9023 6.85223 17.14C6.85223 19.3778 7.74116 21.5238 9.32346 23.1062L29.0124 42.7942C30.5947 44.3765 32.7408 45.2655 34.9785 45.2655C37.2163 45.2655 39.3623 44.3765 40.9447 42.7942L43.9273 39.8116C44.0841 39.6549 44.2085 39.4688 44.2933 39.264C44.3782 39.0593 44.4218 38.8398 44.4218 38.6181C44.4218 38.3964 44.3782 38.1769 44.2933 37.9722C44.2085 37.7674 44.0841 37.5813 43.9273 37.4246L36.7681 30.2654C36.4517 29.949 36.0225 29.7713 35.5751 29.7713C35.1276 29.7713 34.6984 29.949 34.382 30.2654L31.3985 33.2489C30.9238 33.7234 30.2801 33.99 29.6089 33.99C28.9377 33.99 28.294 33.7234 27.8193 33.2489L17.0801 22.5096C16.845 22.2746 16.6585 21.9955 16.5312 21.6884C16.404 21.3813 16.3385 21.0521 16.3385 20.7196C16.3385 20.3872 16.404 20.058 16.5312 19.7509C16.6585 19.4437 16.845 19.1647 17.0801 18.9296L20.0627 15.947C20.2195 15.7903 20.3438 15.6042 20.4287 15.3994C20.5135 15.1946 20.5572 14.9751 20.5572 14.7535C20.5572 14.5318 20.5135 14.3123 20.4287 14.1075C20.3438 13.9028 20.2195 13.7167 20.0627 13.56Z" fill="#2563EB" stroke="black" stroke-width="0.5"/>
<path d="M42.1377 41.6009L43.9273 39.8113C44.0841 39.6546 44.2085 39.4685 44.2933 39.2637C44.3782 39.0589 44.4218 38.8394 44.4218 38.6178C44.4218 38.3961 44.3782 38.1766 44.2933 37.9718C44.2085 37.7671 44.0841 37.581 43.9273 37.4243L36.7681 30.2651C36.4517 29.9487 36.0225 29.771 35.5751 29.771C35.1276 29.771 34.6984 29.9487 34.382 30.2651L32.5916 32.0547L42.1377 41.6009Z" fill="#E1F4FF" stroke="black" stroke-width="0.5"/>
<path d="M8.72693 8.19034L18.2731 17.7365L20.0627 15.9469C20.2195 15.7902 20.3438 15.6042 20.4287 15.3994C20.5135 15.1946 20.5572 14.9751 20.5572 14.7535C20.5572 14.5318 20.5135 14.3123 20.4287 14.1075C20.3438 13.9027 20.2195 13.7167 20.0627 13.56L12.9035 6.40075C12.7468 6.24398 12.5607 6.11962 12.3559 6.03477C12.1512 5.94992 11.9317 5.90625 11.71 5.90625C11.4883 5.90625 11.2689 5.94992 11.0641 6.03477C10.8593 6.11962 10.6732 6.24398 10.5165 6.40075L8.72693 8.19034Z" fill="#F3FBFF" stroke="black" stroke-width="0.5"/>
<path d="M10.5165 9.97996L18.2731 17.7366L20.0627 15.947C20.2194 15.7903 20.3438 15.6042 20.4286 15.3994C20.5135 15.1946 20.5572 14.9751 20.5572 14.7535C20.5572 14.5318 20.5135 14.3123 20.4286 14.1075C20.3438 13.9028 20.2194 13.7167 20.0627 13.56L14.693 8.19037C14.3766 7.87401 13.9474 7.69629 13.5 7.69629C13.0525 7.69629 12.6234 7.87401 12.3069 8.19037L10.5165 9.97996Z" fill="#E1F4FF" stroke="black" stroke-width="0.5"/>
<path d="M26.9258 21.06L28.6588 19.9049C29.2626 19.5024 29.7208 18.9163 29.9658 18.2333C30.2108 17.5502 30.2295 16.8065 30.0192 16.112C29.8089 15.4175 29.3807 14.8091 28.798 14.3767C28.2152 13.9443 27.5088 13.7109 26.7832 13.7109H24.4688C24.3009 13.7109 24.14 13.7776 24.0213 13.8963C23.9026 14.015 23.8359 14.1759 23.8359 14.3438C23.8359 14.5116 23.9026 14.6725 24.0213 14.7912C24.14 14.9099 24.3009 14.9766 24.4688 14.9766H26.7832C27.2372 14.9765 27.6792 15.1225 28.0438 15.393C28.4085 15.6635 28.6764 16.0442 28.808 16.4787C28.9396 16.9133 28.9279 17.3786 28.7746 17.806C28.6213 18.2334 28.3346 18.6001 27.9568 18.8519L26.2238 20.007C25.4885 20.496 24.8857 21.1593 24.4691 21.9378C24.0525 22.7163 23.8349 23.5858 23.8359 24.4688C23.8359 24.6366 23.9026 24.7975 24.0213 24.9162C24.14 25.0349 24.3009 25.1016 24.4688 25.1016H29.5313C29.6991 25.1016 29.86 25.0349 29.9787 24.9162C30.0974 24.7975 30.1641 24.6366 30.1641 24.4688C30.1641 24.3009 30.0974 24.14 29.9787 24.0213C29.86 23.9026 29.6991 23.8359 29.5313 23.8359H25.1505C25.2377 23.2754 25.4405 22.7391 25.7461 22.2612C26.0517 21.7833 26.4535 21.3742 26.9258 21.06Z" fill="black" stroke="black" stroke-width="0.5"/>
<path d="M37.9688 25.1016C38.1366 25.1016 38.2975 25.0349 38.4162 24.9162C38.5349 24.7975 38.6016 24.6366 38.6016 24.4688V14.3438C38.6016 14.1759 38.5349 14.015 38.4162 13.8963C38.2975 13.7776 38.1366 13.7109 37.9688 13.7109C37.8009 13.7109 37.64 13.7776 37.5213 13.8963C37.4026 14.015 37.3359 14.1759 37.3359 14.3438V18.7734H33.5391V14.3438C33.5391 14.1759 33.4724 14.015 33.3537 13.8963C33.235 13.7776 33.0741 13.7109 32.9062 13.7109C32.7384 13.7109 32.5775 13.7776 32.4588 13.8963C32.3401 14.015 32.2734 14.1759 32.2734 14.3438V19.4062C32.2734 19.5741 32.3401 19.735 32.4588 19.8537C32.5775 19.9724 32.7384 20.0391 32.9062 20.0391H37.3359V24.4688C37.3359 24.6366 37.4026 24.7975 37.5213 24.9162C37.64 25.0349 37.8009 25.1016 37.9688 25.1016Z" fill="black" stroke="black" stroke-width="0.5"/>
<path d="M44.7188 25.1016C44.8866 25.1016 45.0475 25.0349 45.1662 24.9162C45.2849 24.7975 45.3516 24.6366 45.3516 24.4688V17.7188C45.3516 17.5509 45.2849 17.39 45.1662 17.2713C45.0475 17.1526 44.8866 17.0859 44.7188 17.0859C44.5509 17.0859 44.39 17.1526 44.2713 17.2713C44.1526 17.39 44.0859 17.5509 44.0859 17.7188V20.4609H41.9766V17.7188C41.9766 17.5509 41.9099 17.39 41.7912 17.2713C41.6725 17.1526 41.5116 17.0859 41.3438 17.0859C41.1759 17.0859 41.015 17.1526 40.8963 17.2713C40.7776 17.39 40.7109 17.5509 40.7109 17.7188V24.4688C40.7109 24.6366 40.7776 24.7975 40.8963 24.9162C41.015 25.0349 41.1759 25.1016 41.3438 25.1016C41.5116 25.1016 41.6725 25.0349 41.7912 24.9162C41.9099 24.7975 41.9766 24.6366 41.9766 24.4688V21.7266H44.0859V24.4688C44.0859 24.6366 44.1526 24.7975 44.2713 24.9162C44.39 25.0349 44.5509 25.1016 44.7188 25.1016Z" fill="black" stroke="black" stroke-width="0.5"/>
<path d="M50.1398 33.0296L48.1933 33.1983C49.9545 31.1244 51.2748 28.7134 52.0737 26.1125C52.8726 23.5115 53.1333 20.7751 52.8399 18.0701C52.5465 15.3651 51.7052 12.7482 50.3673 10.379C49.0293 8.00979 47.2228 5.93796 45.0579 4.28984C42.893 2.64172 40.4151 1.45187 37.7752 0.792839C35.1353 0.133809 32.3889 0.019417 29.7034 0.45664C27.0179 0.893862 24.4496 1.87354 22.1551 3.33591C19.8606 4.79829 17.8881 6.71272 16.3578 8.96245L13.349 5.95448C12.9135 5.51998 12.3235 5.27596 11.7083 5.27596C11.0931 5.27596 10.5031 5.51998 10.0676 5.95448L7.0875 8.93798C5.38948 10.6401 4.43588 12.9462 4.43588 15.3505C4.43588 17.7547 5.38948 20.0609 7.0875 21.763L28.5635 43.244C30.2657 44.9418 32.5718 45.8953 34.976 45.8953C37.3802 45.8953 39.6862 44.9418 41.3885 43.244L42.136 42.4965L47.5031 47.8635C47.885 48.2452 48.1451 48.7316 48.2505 49.2611C48.3559 49.7906 48.3019 50.3395 48.0954 50.8383C47.8888 51.3371 47.5389 51.7635 47.09 52.0635C46.6412 52.3635 46.1134 52.5236 45.5735 52.5236H27.8438C27.417 52.5173 26.9934 52.4485 26.5866 52.3194C27.1808 51.7874 27.6562 51.1361 27.9818 50.408C28.3075 49.68 28.476 48.8915 28.4766 48.0939C28.4766 47.2547 28.1432 46.4499 27.5498 45.8566C26.9565 45.2632 26.1517 44.9298 25.3125 44.9298C24.4733 44.9298 23.6685 45.2632 23.0752 45.8566C22.4818 46.4499 22.1484 47.2547 22.1484 48.0939C22.149 48.8915 22.3175 49.68 22.6432 50.408C22.9688 51.1361 23.4442 51.7874 24.0384 52.3194C23.6316 52.4485 23.208 52.5173 22.7812 52.5236H19.4062C18.9795 52.5173 18.5559 52.4485 18.1491 52.3194C18.7433 51.7874 19.2187 51.1361 19.5443 50.408C19.87 49.68 20.0385 48.8915 20.0391 48.0939C20.0391 47.2547 19.7057 46.4499 19.1123 45.8566C18.519 45.2632 17.7142 44.9298 16.875 44.9298C16.0358 44.9298 15.231 45.2632 14.6377 45.8566C14.0443 46.4499 13.7109 47.2547 13.7109 48.0939C13.7115 48.8915 13.88 49.68 14.2057 50.408C14.5313 51.1361 15.0067 51.7874 15.6009 52.3194C15.1941 52.4485 14.7705 52.5173 14.3438 52.5236H10.9688C10.542 52.5173 10.1184 52.4485 9.71156 52.3194C10.3058 51.7874 10.7812 51.1361 11.1068 50.408C11.4325 49.68 11.601 48.8915 11.6016 48.0939C11.6016 47.2547 11.2682 46.4499 10.6748 45.8566C10.0815 45.2632 9.27666 44.9298 8.4375 44.9298C7.59834 44.9298 6.79355 45.2632 6.20017 45.8566C5.60679 46.4499 5.27344 47.2547 5.27344 48.0939C5.27396 48.8915 5.44253 49.68 5.76818 50.408C6.09383 51.1361 6.56925 51.7874 7.16344 52.3194C6.75661 52.4485 6.33304 52.5173 5.90625 52.5236H1.6875C1.51967 52.5236 1.35871 52.5902 1.24003 52.7089C1.12136 52.8276 1.05469 52.9886 1.05469 53.1564C1.05469 53.3242 1.12136 53.4852 1.24003 53.6039C1.35871 53.7225 1.51967 53.7892 1.6875 53.7892H5.90625C6.7852 53.7882 7.65185 53.5826 8.4375 53.1884C9.22315 53.5826 10.0898 53.7882 10.9688 53.7892H14.3438C15.2227 53.7882 16.0894 53.5826 16.875 53.1884C17.6606 53.5826 18.5273 53.7882 19.4062 53.7892H22.7812C23.6602 53.7882 24.5269 53.5826 25.3125 53.1884C26.0981 53.5826 26.9648 53.7882 27.8438 53.7892H45.5752C46.3653 53.7892 47.1377 53.5548 47.7946 53.1158C48.4516 52.6768 48.9636 52.0529 49.266 51.3229C49.5683 50.5929 49.6474 49.7897 49.4933 49.0147C49.3392 48.2397 48.9587 47.5279 48.4 46.9692L43.0312 41.6012L44.372 40.2605C44.8065 39.825 45.0505 39.235 45.0505 38.6198C45.0505 38.0047 44.8065 37.4146 44.372 36.9792L37.2128 29.8199C36.7772 29.3852 36.187 29.141 35.5717 29.141C34.9563 29.141 34.3661 29.3852 33.9306 29.8199L30.9479 32.8026C30.5916 33.158 30.1088 33.3576 29.6055 33.3576C29.1022 33.3576 28.6195 33.158 28.2631 32.8026L17.5255 22.0634C17.1701 21.707 16.9705 21.2242 16.9705 20.7209C16.9705 20.2177 17.1701 19.7349 17.5255 19.3785L20.509 16.3959C20.9435 15.9604 21.1876 15.3704 21.1876 14.7552C21.1876 14.1401 20.9435 13.55 20.509 13.1145L17.269 9.87454C18.9157 7.37805 21.1383 5.31388 23.7496 3.85592C26.3608 2.39796 29.2842 1.58892 32.2734 1.49695V3.37514C32.2734 3.54297 32.3401 3.70393 32.4588 3.8226C32.5775 3.94128 32.7384 4.00795 32.9062 4.00795C33.0741 4.00795 33.235 3.94128 33.3537 3.8226C33.4724 3.70393 33.5391 3.54297 33.5391 3.37514V1.49273C38.2933 1.65819 42.8079 3.62085 46.1717 6.98467C49.5355 10.3485 51.4982 14.863 51.6637 19.6173H49.7812C49.6134 19.6173 49.4525 19.684 49.3338 19.8027C49.2151 19.9213 49.1484 20.0823 49.1484 20.2501C49.1484 20.418 49.2151 20.5789 49.3338 20.6976C49.4525 20.8163 49.6134 20.8829 49.7812 20.8829H51.6485C51.518 25.152 49.9237 29.2464 47.1327 32.4794L46.9471 30.3515C46.9398 30.2687 46.9163 30.1881 46.8779 30.1144C46.8395 30.0406 46.787 29.9752 46.7233 29.9217C46.6596 29.8683 46.586 29.8279 46.5067 29.8029C46.4274 29.7779 46.3439 29.7688 46.2611 29.7761C46.1783 29.7833 46.0977 29.8068 46.024 29.8452C45.9502 29.8836 45.8848 29.9362 45.8313 29.9999C45.7779 30.0636 45.7375 30.1372 45.7125 30.2165C45.6876 30.2958 45.6784 30.3792 45.6857 30.462L45.9987 34.0277C46.0133 34.1949 46.0937 34.3494 46.2221 34.4573C46.3506 34.5652 46.5167 34.6177 46.6838 34.6032L50.2504 34.291C50.3332 34.2837 50.4138 34.2602 50.4875 34.2218C50.5613 34.1834 50.6267 34.1309 50.6802 34.0672C50.7336 34.0035 50.774 33.9299 50.799 33.8506C50.8239 33.7713 50.8331 33.6878 50.8258 33.605C50.8186 33.5222 50.7951 33.4416 50.7567 33.3679C50.7183 33.2941 50.6657 33.2287 50.602 33.1752C50.5383 33.1218 50.4647 33.0814 50.3854 33.0564C50.3061 33.0314 50.2227 33.0223 50.1398 33.0296ZM8.4375 51.722C7.85196 51.3152 7.37351 50.7727 7.04294 50.141C6.71237 49.5092 6.5395 48.8069 6.53906 48.0939C6.53906 47.5904 6.73908 47.1075 7.0951 46.7515C7.45113 46.3955 7.934 46.1955 8.4375 46.1955C8.941 46.1955 9.42387 46.3955 9.7799 46.7515C10.1359 47.1075 10.3359 47.5904 10.3359 48.0939C10.3355 48.8069 10.1626 49.5092 9.83206 50.141C9.50149 50.7727 9.02304 51.3152 8.4375 51.722ZM16.875 51.722C16.2895 51.3152 15.811 50.7727 15.4804 50.141C15.1499 49.5092 14.977 48.8069 14.9766 48.0939C14.9766 47.5904 15.1766 47.1075 15.5326 46.7515C15.8886 46.3955 16.3715 46.1955 16.875 46.1955C17.3785 46.1955 17.8614 46.3955 18.2174 46.7515C18.5734 47.1075 18.7734 47.5904 18.7734 48.0939C18.773 48.8069 18.6001 49.5092 18.2696 50.141C17.939 50.7727 17.4605 51.3152 16.875 51.722ZM25.3125 51.722C24.727 51.3152 24.2485 50.7727 23.9179 50.141C23.5874 49.5092 23.4145 48.8069 23.4141 48.0939C23.4141 47.5904 23.6141 47.1075 23.9701 46.7515C24.3261 46.3955 24.809 46.1955 25.3125 46.1955C25.816 46.1955 26.2989 46.3955 26.6549 46.7515C27.0109 47.1075 27.2109 47.5904 27.2109 48.0939C27.2105 48.8069 27.0376 49.5092 26.7071 50.141C26.3765 50.7727 25.898 51.3152 25.3125 51.722ZM34.8275 30.7126C35.0255 30.5152 35.2937 30.4043 35.5733 30.4043C35.853 30.4043 36.1212 30.5152 36.3192 30.7126L43.4784 37.8727C43.5764 37.9706 43.6541 38.0868 43.7071 38.2147C43.7601 38.3426 43.7874 38.4797 43.7874 38.6182C43.7874 38.7566 43.7601 38.8937 43.7071 39.0216C43.6541 39.1495 43.5764 39.2657 43.4784 39.3636L42.1377 40.7052L33.4851 32.0567L34.8275 30.7126ZM16.6303 18.4842C16.0386 19.0779 15.7064 19.8819 15.7064 20.7201C15.7064 21.5583 16.0386 22.3623 16.6303 22.956L27.3696 33.6978C27.9634 34.2893 28.7674 34.6214 29.6055 34.6214C30.4436 34.6214 31.2476 34.2893 31.8414 33.6978L32.5873 32.952L41.2417 41.6029L40.5 42.3488C39.035 43.8101 37.0503 44.6308 34.981 44.6308C32.9118 44.6308 30.9271 43.8101 29.4621 42.3488L7.97934 20.8703C6.51807 19.4054 5.69744 17.4208 5.69744 15.3517C5.69744 13.2827 6.51807 11.298 7.97934 9.8332L8.72522 9.08732L17.3762 17.7383L16.6303 18.4842ZM19.6138 15.5007L18.2714 16.8431L9.61875 8.1921L10.9612 6.8497C11.1591 6.65205 11.4273 6.54104 11.707 6.54104C11.9867 6.54104 12.255 6.65205 12.4529 6.8497L19.6138 14.0064C19.712 14.1045 19.7898 14.221 19.8429 14.3492C19.896 14.4774 19.9234 14.6148 19.9234 14.7535C19.9234 14.8923 19.896 15.0297 19.8429 15.1579C19.7898 15.2861 19.712 15.4026 19.6138 15.5007Z" fill="black" stroke="black" stroke-width="0.5"/>
</g>
<defs>
<clipPath id="clip0_3311_3658">
<rect width="54" height="54" fill="white"/>
</clipPath>
</defs>
</svg>
