<svg width="63" height="65" viewBox="0 0 63 65" fill="none" xmlns="http://www.w3.org/2000/svg">
<path fill-rule="evenodd" clip-rule="evenodd" d="M11.8366 10.4061H9.84386C8.46686 10.4061 7.32386 11.4999 7.22561 12.9121L5.94012 31.4121C5.88837 32.159 6.14036 32.8944 6.63686 33.4424C7.13411 33.9905 7.82937 34.3019 8.55837 34.3019H29.3364C30.0654 34.3019 30.7606 33.9905 31.2579 33.4424C31.7544 32.8944 32.0064 32.159 31.9546 31.4121L30.6691 12.9121C30.5709 11.4999 29.4279 10.4061 28.0509 10.4061H26.0724V10.0207C26.0724 5.97611 22.8826 2.69775 18.9474 2.69775C15.1561 2.69775 11.6521 5.80113 11.8224 10.0207C11.8276 10.1486 11.8321 10.2774 11.8366 10.4061ZM26.0724 12.7186V18.4998C26.0724 19.1381 25.5684 19.6561 24.9474 19.6561C24.3264 19.6561 23.8224 19.1381 23.8224 18.4998V12.7186H14.0724V18.4998C14.0724 19.1381 13.5684 19.6561 12.9474 19.6561C12.3264 19.6561 11.8224 19.1381 11.8224 18.4998C11.8224 18.4998 11.9199 15.7981 11.8876 12.7186H9.84386C9.64736 12.7186 9.48387 12.8751 9.47037 13.0762L8.1841 31.5762C8.1766 31.6834 8.21262 31.7882 8.28387 31.8669C8.35512 31.9447 8.45412 31.9894 8.55837 31.9894H29.3364C29.4406 31.9894 29.5396 31.9447 29.6109 31.8669C29.6821 31.7882 29.7181 31.6834 29.7106 31.5762L28.4244 13.0762C28.4109 12.8751 28.2474 12.7186 28.0509 12.7186H26.0724ZM23.8224 10.4061V10.0207C23.8224 7.25338 21.6399 5.01025 18.9474 5.01025C16.2549 5.01025 14.0724 7.25338 14.0724 10.0207V10.4061H23.8224Z" fill="black"/>
<g clip-path="url(#clip0_3312_4127)">
<path d="M40.7578 54.2344C40.7578 56.1179 39.2543 57.6504 37.4062 57.6504H21.6076C21.3131 57.6504 21.0303 57.769 20.8212 57.9803L17.7031 61.1298V58.7891C17.7031 58.1602 17.2029 57.6504 16.5859 57.6504C14.7379 57.6504 13.2344 56.1179 13.2344 54.2344V38.0859C13.2344 36.2024 14.7379 34.6699 16.5859 34.6699H31.6958V32.3926H16.5859C13.5059 32.3926 11 34.9466 11 38.0859V54.2344C11 56.9837 12.9223 59.2843 15.4688 59.8133V63.8613C15.4688 64.3209 15.7398 64.7355 16.1561 64.9123C16.2951 64.9713 16.441 65 16.5857 65C16.8747 65 17.159 64.8856 17.3723 64.67L22.0674 59.9277H37.4062C40.4863 59.9277 42.9922 57.3737 42.9922 54.2344V43.9062H40.7578V54.2344Z" fill="black"/>
<path d="M52.5708 23.8341L49.2124 20.4111C48.8929 20.0854 48.4125 19.9882 47.9948 20.1643C47.5774 20.3406 47.3052 20.7557 47.3052 21.2163V28.6863C46.5692 28.213 45.6989 27.938 44.7662 27.938C42.1341 27.938 39.9927 30.1205 39.9927 32.8032C39.9927 35.4859 42.1341 37.6685 44.7662 37.6685C47.3983 37.6685 49.5396 35.4859 49.5396 32.8032V23.9654L50.9909 25.4446C51.4274 25.8893 52.1345 25.8893 52.5709 25.4446C53.0072 24.9997 53.0072 24.2788 52.5708 23.8341ZM44.7661 35.391C43.366 35.391 42.227 34.2301 42.227 32.8031C42.227 31.3762 43.366 30.2152 44.7661 30.2152C46.1661 30.2152 47.3051 31.3762 47.3051 32.8031C47.3051 34.2301 46.1661 35.391 44.7661 35.391Z" fill="#2563EB"/>
<path d="M32.8559 43.3982L25.3584 38.9861C24.3787 38.4096 23.2088 38.4095 22.229 38.9861C21.2494 39.5627 20.6644 40.5953 20.6644 41.7483V50.5723C20.6644 51.7254 21.2494 52.7579 22.229 53.3345C22.719 53.6228 23.2562 53.767 23.7937 53.7669C24.3311 53.7669 24.8685 53.6227 25.3584 53.3345L32.8559 48.9225C33.8356 48.346 34.4206 47.3133 34.4206 46.1603C34.4206 45.0072 33.8356 43.9746 32.8559 43.3982ZM31.7387 46.9503L24.2412 51.3623C23.8372 51.6001 23.4807 51.4415 23.3462 51.3623C23.2117 51.2831 22.8987 51.0476 22.8987 50.5723V41.7483C22.8987 41.273 23.2117 41.0375 23.3462 40.9583C23.4281 40.9102 23.5917 40.8328 23.7983 40.8328C23.9315 40.8328 24.0829 40.8651 24.2412 40.9583L31.7387 45.3703C32.1427 45.608 32.1862 46.002 32.1862 46.1603C32.1862 46.3185 32.1426 46.7126 31.7387 46.9503Z" fill="#2563EB"/>
<path d="M46.4453 12C37.317 12 29.8906 19.5693 29.8906 28.873C29.8906 38.1768 37.317 45.7461 46.4453 45.7461C48.4212 45.7461 50.3457 45.3969 52.1768 44.7072L56.0183 48.5874C56.2318 48.803 56.5158 48.9174 56.8049 48.9174C56.9497 48.9174 57.0957 48.8887 57.2345 48.8297C57.6508 48.6529 57.9219 48.2383 57.9219 47.7787V41.033C61.1551 37.8602 63 33.4575 63 28.8732C63 19.5693 55.5736 12 46.4453 12ZM56.0547 39.6945C55.8209 39.9103 55.6875 40.2169 55.6875 40.5384V45.0471L53.2312 42.5661C53.0177 42.3505 52.7336 42.2361 52.4445 42.2361C52.2982 42.2361 52.1505 42.2655 52.0103 42.3258C50.2479 43.0842 48.3755 43.4688 46.4453 43.4688C38.549 43.4688 32.125 36.9212 32.125 28.873C32.125 20.8249 38.549 14.2773 46.4453 14.2773C54.3416 14.2773 60.7656 20.8249 60.7656 28.873C60.7656 32.9866 59.0486 36.9308 56.0547 39.6945Z" fill="black"/>
<path d="M29.8906 32.3926H9.16992V6.54523H29.8906V32.3926Z" fill="#2563EB"/>
</g>
<defs>
<clipPath id="clip0_3312_4127">
<rect width="52" height="53" fill="white" transform="translate(11 12)"/>
</clipPath>
</defs>
</svg>
