<svg width="62" height="62" viewBox="0 0 62 62" fill="none" xmlns="http://www.w3.org/2000/svg">
<path d="M55.8848 19.417H38.2486V9.66729H55.8848V19.417Z" fill="#2563EB"/>
<path d="M36.7412 49.5771H25.1885V48.2957H36.7412V49.5771Z" fill="#2563EB"/>
<path d="M60.9667 46.2692H57.7943V26.3238C57.7943 25.7534 57.3314 25.2905 56.761 25.2905C56.1906 25.2905 55.7277 25.7534 55.7277 26.3238V46.2692H42.3377V42.9729C42.3377 38.4934 39.3659 34.6969 35.2904 33.4476C36.642 32.2551 37.5017 30.5161 37.5017 28.5765C37.5017 24.9919 34.5857 22.0758 31.001 22.0758C27.4164 22.0758 24.5003 24.9919 24.5003 28.5765C24.5003 30.5161 25.359 32.2562 26.7117 33.4476C22.6362 34.6979 19.6643 38.4934 19.6643 42.9729V46.2692H6.27233V17.1096C6.27233 15.5369 7.5516 14.2576 9.12433 14.2576H34.2529C34.8233 14.2576 35.2863 13.7947 35.2863 13.2243C35.2863 12.6539 34.8233 12.1909 34.2529 12.1909H9.12433C6.41183 12.1909 4.20567 14.3971 4.20567 17.1096V46.2692H1.03333C0.462933 46.2692 0 46.7322 0 47.3026V48.3731C0 52.3648 3.24777 55.6126 7.23953 55.6126H54.7605C58.7522 55.6126 62 52.3648 62 48.3731V47.3026C62 46.7322 61.5371 46.2692 60.9667 46.2692ZM25.3745 48.3369H36.6265V49.5542H25.3745V48.3369ZM31 24.1425C33.4449 24.1425 35.434 26.1316 35.434 28.5765C35.434 31.0214 33.4449 33.0105 31 33.0105C28.5551 33.0105 26.566 31.0214 26.566 28.5765C26.566 26.1316 28.5551 24.1425 31 24.1425ZM21.7289 42.9729C21.7289 38.6194 25.2712 35.0761 29.6257 35.0761H32.3743C36.7278 35.0761 40.2711 38.6184 40.2711 42.9729V46.2692H21.7289V42.9729ZM59.9333 48.3731C59.9333 51.2261 57.6125 53.5459 54.7605 53.5459H7.23953C4.3865 53.5459 2.06667 51.2251 2.06667 48.3731V48.3359H5.23383C5.23383 48.3359 5.23693 48.3359 5.239 48.3359H23.3079V50.5865C23.3079 51.1569 23.7708 51.6198 24.3412 51.6198H37.6598C38.2302 51.6198 38.6932 51.1569 38.6932 50.5865V48.3359H56.762C56.762 48.3359 56.7651 48.3359 56.7672 48.3359H59.9344L59.9333 48.3731Z" fill="black"/>
<path d="M57.1902 7.74413H39.6132C38.0293 7.74413 36.7408 9.03257 36.7408 10.6165V21.6573C36.7408 23.2412 38.0293 24.5297 39.6132 24.5297H40.3281V26.7965C40.3281 27.1714 40.5442 27.5124 40.8823 27.6723C41.014 27.7343 41.1554 27.7653 41.2969 27.7653C41.5168 27.7653 41.7348 27.6907 41.9111 27.5454L45.5904 24.5287H57.1912C58.7751 24.5287 60.0635 23.2403 60.0635 21.6564V10.6155C60.0635 9.0316 58.7751 7.74316 57.1912 7.74316L57.1902 7.74413ZM58.125 21.6573C58.125 22.1727 57.7056 22.5922 57.1902 22.5922H45.2436C45.0198 22.5922 44.8028 22.6697 44.6294 22.8121L42.2656 24.7505V23.5609C42.2656 23.0262 41.8316 22.5922 41.2969 22.5922H39.6132C39.0978 22.5922 38.6783 22.1727 38.6783 21.6573V10.6155C38.6783 10.1001 39.0978 9.68066 39.6132 9.68066H57.1902C57.7056 9.68066 58.125 10.1001 58.125 10.6155V21.6564V21.6573Z" fill="#2563EB"/>
<path d="M44.6383 15.1675H44.3827C43.9185 15.1675 43.5417 15.6015 43.5417 16.1362C43.5417 16.671 43.9185 17.105 44.3827 17.105H44.6383C45.1025 17.105 45.4792 16.671 45.4792 16.1362C45.4792 15.6015 45.1025 15.1675 44.6383 15.1675Z" fill="white"/>
<path d="M48.3812 15.1675H48.1249C47.6609 15.1675 47.2843 15.6015 47.2843 16.1362C47.2843 16.671 47.6609 17.105 48.1249 17.105H48.3812C48.8452 17.105 49.2218 16.671 49.2218 16.1362C49.2218 15.6015 48.8452 15.1675 48.3812 15.1675Z" fill="white"/>
<path d="M52.1259 15.1675H51.8695C51.4055 15.1675 51.0289 15.6015 51.0289 16.1362C51.0289 16.671 51.4055 17.105 51.8695 17.105H52.1259C52.5899 17.105 52.9664 16.671 52.9664 16.1362C52.9664 15.6015 52.5899 15.1675 52.1259 15.1675Z" fill="white"/>
<path d="M35.7808 28.5663C35.7808 31.177 33.6643 33.2935 31.0536 33.2935H30.876C28.2652 33.2935 26.1488 31.177 26.1488 28.5663C26.1488 25.9555 28.2652 23.8391 30.876 23.8391H31.0536C33.6643 23.8391 35.7808 25.9555 35.7808 28.5663Z" fill="#2563EB"/>
</svg>
