<svg width="52" height="53" viewBox="0 0 52 53" fill="none" xmlns="http://www.w3.org/2000/svg">
<g clip-path="url(#clip0_3311_3669)">
<path d="M1.01605 1.03516H50.9843V31.779H1.01605V1.03516Z" fill="#2563EB"/>
<path d="M50.9844 42.6484V44.2011C49.6954 44.2011 40.0946 44.2011 38.797 44.2011V42.6484C38.797 40.9332 40.161 39.543 41.8438 39.543H47.9375C49.6204 39.543 50.9844 40.9332 50.9844 42.6484Z" fill="white"/>
<path d="M50.9842 34.8846C49.6952 34.8846 40.0945 34.8846 38.7968 34.8846C38.7968 34.1332 38.7968 29.4301 38.7968 28.6738C38.7968 25.2433 41.5248 22.4629 44.8905 22.4629C48.2563 22.4629 50.9842 25.2433 50.9842 28.6738V34.8846Z" fill="#F2F2F2"/>
<path d="M32.0938 42.6484V44.2011C30.8047 44.2011 21.204 44.2011 19.9064 44.2011V42.6484C19.9064 40.9332 21.2703 39.543 22.9532 39.543H29.0469C30.7298 39.543 32.0938 40.9332 32.0938 42.6484Z" fill="white"/>
<path d="M32.0938 34.8846C30.5573 34.8846 21.441 34.8846 19.9064 34.8846C19.9064 34.1332 19.9064 29.4301 19.9064 28.6738C19.9064 25.2433 22.6343 22.4629 26.0001 22.4629C29.3658 22.4629 32.0938 25.2433 32.0938 28.6738V34.8846Z" fill="#F2F2F2"/>
<path d="M30.5704 12.5254L22.9532 17.1836V7.86719L30.5704 12.5254Z" fill="#EEFAFF"/>
<path d="M13.2033 42.6479V44.2006C11.9143 44.2006 2.31358 44.2006 1.01593 44.2006V42.6479C1.01593 40.9327 2.3799 39.5425 4.06278 39.5425H10.1565C11.8393 39.5425 13.2033 40.9327 13.2033 42.6479Z" fill="white"/>
<path d="M13.2033 34.8846C11.6669 34.8846 2.55052 34.8846 1.01593 34.8846C1.01593 34.1332 1.01593 29.4301 1.01593 28.6738C1.01593 25.2433 3.74387 22.4629 7.10962 22.4629C10.4754 22.4629 13.2033 25.2433 13.2033 28.6738V34.8846Z" fill="#F2F2F2"/>
<path d="M49.4374 45.2359H50.9842C51.5451 45.2359 51.9998 44.7723 51.9998 44.2007V42.648C51.9998 40.7222 50.7032 39.0993 48.953 38.6385V35.9196H50.9842C51.5451 35.9196 51.9998 35.456 51.9998 34.8844C51.9998 34.2957 51.9998 2.50681 51.9998 1.03515C51.9998 0.463538 51.5451 0 50.9842 0H30.5704C30.0094 0 29.5547 0.463538 29.5547 1.03515C29.5547 1.60675 30.0094 2.07029 30.5704 2.07029H49.9686V23.6093C48.6772 22.2643 46.8783 21.4275 44.8905 21.4275C40.9705 21.4275 37.7812 24.6781 37.7812 28.6735V30.7438H33.1094V28.6735C33.1094 24.6781 29.9202 21.4275 26.0001 21.4275C22.08 21.4275 18.8908 24.6781 18.8908 28.6735V30.7438H14.219V28.6735C14.219 24.6781 11.0297 21.4275 7.10965 21.4275C5.12189 21.4275 3.32304 22.2643 2.03158 23.6093V2.07029H21.4298C21.9908 2.07029 22.4454 1.60675 22.4454 1.03515C22.4454 0.463538 21.9908 0 21.4298 0H1.01596C0.45504 0 0.000349367 0.463538 0.000349367 1.03515V34.8844C0.000349367 35.456 0.45504 35.9196 1.01596 35.9196H3.04719V38.6385C1.29699 39.0993 0.000349367 40.7222 0.000349367 42.648V44.2007C0.000349367 44.7723 0.45504 45.2359 1.01596 45.2359H2.56275L0.0729658 51.5799C-0.135337 52.1107 0.117958 52.7131 0.638765 52.9255C1.16292 53.1391 1.75198 52.8762 1.95896 52.3488L4.75048 45.2359H9.46903L12.2605 52.3488C12.4692 52.8802 13.06 53.1375 13.5807 52.9255C14.1016 52.7131 14.3548 52.1107 14.1465 51.5799L11.6569 45.2359H13.2036C13.7646 45.2359 14.2193 44.7723 14.2193 44.2007V42.648C14.2193 40.7222 12.9226 39.0993 11.1724 38.6385V35.9196H13.2036C13.7646 35.9196 14.2193 35.456 14.2193 34.8844V32.8141H18.8911V34.8844C18.8911 35.456 19.3458 35.9196 19.9067 35.9196H21.9379V38.6385C20.1877 39.0993 18.8911 40.7222 18.8911 42.648V44.2007C18.8911 44.7723 19.3458 45.2359 19.9067 45.2359H21.4535L18.9638 51.5799C18.7555 52.1107 19.0088 52.7131 19.5296 52.9255C20.0538 53.1391 20.6428 52.8762 20.8498 52.3488L23.6413 45.2359H28.3599L31.1514 52.3488C31.36 52.8802 31.9509 53.1375 32.4716 52.9255C32.9924 52.7131 33.2457 52.1107 33.0374 51.5799L30.5477 45.2359H32.0945C32.6554 45.2359 33.1101 44.7723 33.1101 44.2007V42.648C33.1101 40.7222 31.8135 39.0993 30.0633 38.6385V35.9196H32.0945C32.6554 35.9196 33.1101 35.456 33.1101 34.8844V32.8141H37.7819V34.8844C37.7819 35.456 38.2366 35.9196 38.7976 35.9196H40.8288V38.6385C39.0786 39.0993 37.7819 40.7222 37.7819 42.648V44.2007C37.7819 44.7723 38.2366 45.2359 38.7976 45.2359H40.3443L37.8547 51.5799C37.6464 52.1107 37.8996 52.7131 38.4205 52.9255C38.9446 53.1391 39.5337 52.8762 39.7407 52.3488L42.5322 45.2359H47.2507L50.0422 52.3488C50.2508 52.8802 50.8417 53.1375 51.3624 52.9255C51.8832 52.7131 52.1365 52.1107 51.9282 51.5799L49.4374 45.2359ZM12.1877 42.648V43.1656C10.8875 43.1656 3.262 43.1656 2.03158 43.1656V42.648C2.03158 41.5065 2.94279 40.5777 4.06281 40.5777H10.1565C11.2764 40.5777 12.1877 41.5064 12.1877 42.648ZM9.14088 38.5074H5.07842V35.9196H9.14088V38.5074ZM12.1877 33.8493H2.03158V28.6735C2.03158 25.8196 4.3096 23.4978 7.10965 23.4978C9.9097 23.4978 12.1877 25.8196 12.1877 28.6735V33.8493ZM31.0782 42.648V43.1656C29.778 43.1656 22.1524 43.1656 20.922 43.1656V42.648C20.922 41.5065 21.8332 40.5777 22.9532 40.5777H29.0469C30.1669 40.5777 31.0782 41.5064 31.0782 42.648ZM28.0313 38.5074H23.9689V35.9196H28.0313V38.5074ZM31.0782 33.8493H20.922V28.6735C20.922 25.8196 23.2 23.4978 26.0001 23.4978C28.8001 23.4978 31.0782 25.8196 31.0782 28.6735V33.8493ZM39.8125 28.6735C39.8125 25.8196 42.0905 23.4978 44.8905 23.4978C47.6906 23.4978 49.9686 25.8196 49.9686 28.6735V33.8493H39.8125V28.6735ZM46.9218 35.9196V38.5074H42.8593V35.9196H46.9218ZM39.8125 42.648C39.8125 41.5065 40.7237 40.5777 41.8437 40.5777H47.9374C49.0574 40.5777 49.9686 41.5065 49.9686 42.648V43.1656C48.6684 43.1656 41.0429 43.1656 39.8125 43.1656V42.648Z" fill="black"/>
<path d="M22.4528 6.96645C22.1344 7.15019 21.9376 7.49437 21.9376 7.86723V17.1836C21.9376 17.5565 22.1344 17.9006 22.4528 18.0843C22.771 18.2681 23.162 18.263 23.4758 18.0712L31.0929 13.413C31.3988 13.2259 31.586 12.8889 31.586 12.5254C31.586 12.1618 31.3988 11.8248 31.0929 11.6378L23.4758 6.9796C23.1619 6.78768 22.7711 6.78261 22.4528 6.96645ZM23.9689 9.69561L28.5963 12.5255L23.9689 15.3554V9.69561Z" fill="black"/>
<path d="M26.0001 2.07031C26.561 2.07031 27.0157 1.60686 27.0157 1.03516C27.0157 0.463455 26.561 0 26.0001 0C25.4391 0 24.9844 0.463455 24.9844 1.03516C24.9844 1.60686 25.4391 2.07031 26.0001 2.07031Z" fill="black"/>
</g>
<defs>
<clipPath id="clip0_3311_3669">
<rect width="52" height="53" fill="white"/>
</clipPath>
</defs>
</svg>
