<svg width="60" height="60" viewBox="0 0 60 60" fill="none" xmlns="http://www.w3.org/2000/svg">
<path d="M41.0597 42.08H27.2888L29.77 31.2817H38.5785L41.0597 42.08Z" fill="#EFEFEF"/>
<path d="M9.22736 32.5617V4.53375C9.22736 3.16242 9.67379 2.05078 10.2245 2.05078H28.2673C28.818 2.05078 29.2645 3.16242 29.2645 4.53375V27.4564L9.22736 32.5617Z" fill="#2563EB"/>
<path d="M59.1211 27.4564V4.53375C59.1211 3.16242 58.0095 2.05078 56.6381 2.05078H53.1225C54.4938 2.05078 55.6055 3.16242 55.6055 4.53375V32.5617L59.1211 27.4564Z" fill="#2563EB"/>
<path d="M9.22736 27.4565V32.5602C9.22736 33.9324 10.3383 35.0448 11.7086 35.0448H56.6398C58.0102 35.0448 59.121 33.9323 59.121 32.5602V27.4565H9.22736Z" fill="#F7F7F7"/>
<path d="M55.6055 27.4565V32.5602C55.6055 33.9324 54.4945 35.0448 53.1243 35.0448H56.6399C58.0103 35.0448 59.1211 33.9323 59.1211 32.5602V27.4565H55.6055Z" fill="#EFEFEF"/>
<path d="M23.9393 47.9761H4.10517V23.3596H23.9393V47.9761Z" fill="white"/>
<path d="M20.4236 23.3594H23.9393V47.9759H20.4236V23.3594Z" fill="#2563EB"/>
<path d="M21.045 56.1751V34.3349C21.045 33.355 21.8394 32.5605 22.8193 32.5605H32.4146C33.3946 32.5605 34.189 33.355 34.189 34.3349V56.1751C34.189 57.155 33.3946 57.9495 32.4146 57.9495H22.8193C21.8394 57.9495 21.045 57.155 21.045 56.1751Z" fill="white"/>
<path d="M32.4147 32.5605H28.8991C29.879 32.5605 30.6734 33.355 30.6734 34.3349V56.1751C30.6734 57.155 29.879 57.9495 28.8991 57.9495H32.4147C33.3947 57.9495 34.1891 57.155 34.1891 56.1751V34.3349C34.1891 33.355 33.3947 32.5605 32.4147 32.5605Z" fill="white"/>
<path d="M21.045 54.1875H34.1891V56.1982C34.1891 57.1654 33.3924 57.9493 32.4097 57.9493H22.8244C21.8416 57.9493 21.045 57.1654 21.045 56.1982V54.1875Z" fill="#2563EB"/>
<path d="M30.6735 54.1875V56.1982C30.6735 57.1654 29.8768 57.9493 28.8941 57.9493H32.4097C33.3925 57.9493 34.1891 57.1654 34.1891 56.1982V54.1875H30.6735Z" fill="#2563EB"/>
<path d="M56.6381 1.17188H53.0859C51.986 1.17188 51.936 2.92969 53.0859 2.92969H56.6381C57.5225 2.92969 58.2422 3.64934 58.2422 4.53375V26.5774H28.0445V21.0729C28.0445 20.0762 27.2337 19.2654 26.237 19.2654H10.1062V4.53375C10.1062 3.64934 10.8259 2.92969 11.7103 2.92969H48.0469C49.1468 2.92969 49.1968 1.17188 48.0469 1.17188H11.7103C9.85652 1.17188 8.34844 2.68008 8.34844 4.53375V19.2655H1.8075C0.81082 19.2655 0 20.0763 0 21.073V52.6846C0 53.6814 0.81082 54.4922 1.8075 54.4922H20.166V56.1981C20.166 57.3609 20.933 58.3492 21.9925 58.6956C22.0063 58.7002 22.0199 58.7052 22.0339 58.7095C22.0387 58.7111 22.0437 58.7122 22.0484 58.7136C22.2925 58.7879 22.5512 58.8282 22.8193 58.8282H32.4146C32.6813 58.8282 32.9386 58.7883 33.1816 58.7148C33.1879 58.7129 33.1942 58.7114 33.2004 58.7094C33.2129 58.7055 33.2251 58.701 33.2375 58.697C34.2991 58.3519 35.068 57.3625 35.068 56.1982V42.9587H45.3722C46.4721 42.9587 46.5221 41.2009 45.3722 41.2009H41.7595L40.5469 35.9236H56.638C58.4691 35.9236 59.9999 34.3972 59.9999 32.5617V4.53375C60 2.67996 58.4919 1.17188 56.6381 1.17188ZM58.2422 28.3352V32.56C58.2422 33.4403 57.518 34.1657 56.6399 34.1657H35.062C34.9746 32.7811 33.8209 31.6813 32.4146 31.6813H28.0445V28.3352H58.2422ZM32.4146 33.4392C32.9085 33.4392 33.3102 33.8409 33.3102 34.3347V53.3085H21.9238V34.3347C21.9238 33.8409 22.3255 33.4391 22.8193 33.4391H32.4146V33.4392ZM1.75781 52.6847C1.8075 52.6346 1.66254 21.0127 1.80738 21.0234C1.8075 21.0233 26.237 21.0233 26.237 21.0233C26.2644 21.0233 26.2867 21.0456 26.2867 21.073V31.6814H24.8182V23.3593C24.8182 22.8739 24.4247 22.4804 23.9393 22.4804H4.1052C3.6198 22.4804 3.22629 22.8739 3.22629 23.3593V37.8516C3.22629 38.9514 4.9841 39.0015 4.9841 37.8516V24.2382H23.0604V31.6814C21.5384 31.6173 20.166 32.7592 20.166 34.3348V47.097H4.9841V42.7127C4.9841 41.6129 3.22629 41.5628 3.22629 42.7127V47.9759C3.22629 48.4613 3.6198 48.8548 4.1052 48.8548H20.166V52.7344C20.1161 52.6849 1.74727 52.8291 1.75781 52.6847ZM22.8244 57.0703C22.7329 57.0703 22.6446 57.057 22.5614 57.0322C22.5596 57.0316 22.5578 57.0312 22.556 57.0307C22.5516 57.0293 22.5472 57.0278 22.5428 57.0264C22.1841 56.9095 21.9239 56.572 21.9239 56.1749V55.0663H33.3103V56.1749C33.3103 56.5721 33.0503 56.9095 32.6914 57.0265C32.687 57.0279 32.6827 57.0295 32.6782 57.0308C32.6763 57.0314 32.6745 57.0319 32.6726 57.0325C32.5894 57.0571 32.5011 57.0704 32.4097 57.0704H22.8244V57.0703ZM39.9559 41.2009H35.068V35.9236H38.7432L39.9559 41.2009Z" fill="black"/>
<path d="M14.9367 49.8975H13.1079C11.9441 49.9378 11.9451 51.6153 13.1079 51.6553H14.9367C16.1005 51.615 16.0996 49.9374 14.9367 49.8975Z" fill="black"/>
<path d="M26.8423 36.0928H28.3918C29.5556 36.0525 29.5547 34.3749 28.3918 34.335H26.8423C25.6785 34.3753 25.6793 36.0528 26.8423 36.0928Z" fill="black"/>
</svg>
