<svg width="61" height="60" viewBox="0 0 61 60" fill="none" xmlns="http://www.w3.org/2000/svg">
<path d="M48.028 8.22168V20.4303H45.0494V8.22168C45.0494 7.31582 44.3024 6.58105 43.3815 6.58105H46.36C47.2809 6.58105 48.028 7.31582 48.028 8.22168Z" fill="#2563EB"/>
<path d="M52.1979 20.7422V46.7402C52.1979 48.423 50.8111 49.7871 49.1002 49.7871H46.1217C47.8326 49.7871 49.2194 48.423 49.2194 46.7402V20.7422C49.2194 19.7062 48.3663 18.8672 47.3131 18.8672H50.2916C51.3448 18.8672 52.1979 19.7062 52.1979 20.7422Z" fill="#2563EB"/>
<path d="M5.65918 44.1619V40.7583C5.65918 40.2406 6.08594 39.8208 6.6123 39.8208H19.7709C20.2973 39.8208 20.724 40.2406 20.724 40.7583V44.1619C20.724 44.6796 20.2973 45.0994 19.7709 45.0994H6.6123C6.08594 45.0994 5.65918 44.6797 5.65918 44.1619Z" fill="#2563EB"/>
<path d="M20.7245 40.7578V44.1621C20.7245 44.6801 20.2968 45.0996 19.7714 45.0996H16.7928C17.3183 45.0996 17.746 44.6801 17.746 44.1621V40.7578C17.746 40.241 17.3183 39.8203 16.7928 39.8203H19.7714C20.2968 39.8203 20.7245 40.241 20.7245 40.7578Z" fill="#D8ECFE"/>
<path d="M58.5559 39.0834H55.2199V33.8439C55.2199 32.2116 53.8693 30.8838 52.2092 30.8838H49.1032C47.4437 30.8838 46.0937 32.2118 46.0937 33.8439V39.0834H42.7578V33.8439C42.7578 30.4024 45.6044 27.6025 49.1032 27.6025H52.2092C55.7088 27.6025 58.5559 30.4025 58.5559 33.8439V39.0834Z" fill="#DFF6FD"/>
<path d="M57.0088 53.4186H44.3048C42.5941 53.4186 41.2072 52.0544 41.2072 50.3717V38.7319C41.2072 38.2142 41.6339 37.7944 42.1603 37.7944H59.1533C59.6797 37.7944 60.1064 38.2142 60.1064 38.7319V50.3717C60.1064 52.0545 58.7195 53.4186 57.0088 53.4186Z" fill="#2563EB"/>
<path d="M60.1064 38.7314V50.3717C60.1064 52.0545 58.7196 53.4186 57.0088 53.4186H54.0303C55.7411 53.4186 57.1279 52.0545 57.1279 50.3717V38.7314C57.1279 38.2146 56.7014 37.7939 56.1748 37.7939H59.1533C59.6799 37.7939 60.1064 38.2146 60.1064 38.7314Z" fill="#2563EB"/>
<path d="M50.6569 45.6826C51.8742 45.6826 52.861 44.712 52.861 43.5146C52.861 42.3173 51.8742 41.3467 50.6569 41.3467C49.4396 41.3467 48.4528 42.3173 48.4528 43.5146C48.4528 44.712 49.4396 45.6826 50.6569 45.6826Z" fill="#3692BC"/>
<path d="M60.1064 41.783C60.6 41.783 61 41.3895 61 40.9041V38.7314C61 37.829 60.3269 37.0804 59.4488 36.9406V33.8447C59.4488 30.2126 56.6685 27.2091 53.0914 26.7793V20.742C53.0914 19.2235 51.8355 17.9881 50.2916 17.9881H48.9215V8.22168C48.9215 6.83242 47.7724 5.70215 46.36 5.70215H13.3175C12.1344 5.74246 12.1353 7.42 13.3175 7.45996H46.36C46.787 7.45996 47.1344 7.80168 47.1344 8.22168V17.9881H15.3084C15.2116 17.9881 15.1205 17.9416 15.0645 17.8633L13.7121 15.9725H43.0133C44.1965 15.9321 44.1956 14.2546 43.0133 14.2146H12.3551C11.8514 13.7839 11.2004 13.5385 10.5189 13.5385H5.95822V8.22168C5.95822 7.80168 6.30564 7.45996 6.73264 7.45996H9.14762C10.3308 7.41965 10.3298 5.74211 9.14762 5.70215H6.73264C5.32022 5.70215 4.17111 6.83242 4.17111 8.22168V13.5385H2.7998C1.25598 13.5385 0 14.7739 0 16.2924V46.74C0 48.9047 1.79045 50.6658 3.99121 50.6658H40.326C40.4796 52.6935 42.2049 54.2975 44.3048 54.2975H57.0088C59.2096 54.2975 61 52.5364 61 50.3717V45.0057C60.959 43.8419 59.2535 43.8428 59.2129 45.0057V50.3717C59.2129 51.5671 58.2241 52.5397 57.0088 52.5397H44.3048C43.0895 52.5397 42.1007 51.5671 42.1007 50.3717V38.7314C42.1007 38.6997 42.128 38.6729 42.1603 38.6729H59.1533C59.1856 38.6729 59.2129 38.6997 59.2129 38.7314V40.9041C59.2129 41.3895 59.6128 41.783 60.1064 41.783ZM57.6617 33.8447V36.915H56.1129V33.8447C56.1129 31.7279 54.3614 30.0057 52.2085 30.0057H49.1037C46.9509 30.0057 45.1993 31.7279 45.1993 33.8447V36.915H43.6505V33.8447C43.6505 30.8879 46.0967 28.4822 49.1037 28.4822H52.2085C55.2155 28.4822 57.6617 30.8879 57.6617 33.8447ZM51.3043 36.915H46.9867V33.8447C46.9867 32.6971 47.9365 31.7635 49.1039 31.7635H51.3045V36.915H51.3043ZM53.0914 31.9555C53.8187 32.2853 54.3257 33.0072 54.3257 33.8447V36.915H53.0914V31.9555ZM1.78711 46.74V16.2924C1.78711 15.7431 2.24139 15.2963 2.7998 15.2963H10.5189C10.8478 15.2963 11.1569 15.4544 11.3465 15.72L13.6028 18.8745C13.9927 19.4201 14.6305 19.746 15.3084 19.746H50.2916C50.8501 19.746 51.3043 20.1929 51.3043 20.7421V26.7245H49.1038C45.1115 26.7245 41.8635 29.9187 41.8635 33.8448V36.9408C40.9862 37.0811 40.3135 37.8296 40.3135 38.7316V48.9081H3.99121C2.77586 48.908 1.78711 47.9355 1.78711 46.74Z" fill="black"/>
<path d="M50.6568 50.7446C51.1504 50.7446 51.5504 50.3511 51.5504 49.8657V46.4318C54.9149 45.3731 54.2304 40.5418 50.6568 40.4678C47.0826 40.5421 46.3993 45.3737 49.7632 46.4318V49.8657C49.7632 50.3512 50.1632 50.7446 50.6568 50.7446ZM49.3463 43.5148C49.3463 42.804 49.9342 42.2257 50.6568 42.2257C52.393 42.2905 52.3926 44.7393 50.6568 44.8038C49.9341 44.8038 49.3463 44.2255 49.3463 43.5148Z" fill="black"/>
<path d="M19.7708 38.9414H6.6123C5.59401 38.9414 4.76562 39.7562 4.76562 40.7578V44.1613C4.76562 45.1629 5.59401 45.9777 6.6123 45.9777H19.7708C20.7891 45.9777 21.6175 45.1629 21.6175 44.1613V40.7578C21.6175 39.7562 20.7891 38.9414 19.7708 38.9414ZM19.8304 44.1614C19.8304 44.1937 19.8036 44.22 19.7708 44.22H6.6123C6.57954 44.22 6.55273 44.1937 6.55273 44.1614V40.7579C6.55273 40.7256 6.57954 40.6993 6.6123 40.6993H19.7708C19.8036 40.6993 19.8304 40.7256 19.8304 40.7579V44.1614Z" fill="black"/>
<path d="M9.18506 10.9619C9.18506 11.4473 9.58501 11.8408 10.0786 11.8408H43.0134C44.1966 11.8005 44.1956 10.123 43.0134 10.083H10.0786C9.58501 10.083 9.18506 10.4765 9.18506 10.9619Z" fill="black"/>
</svg>
