<svg width="66" height="66" viewBox="0 0 66 66" fill="none" xmlns="http://www.w3.org/2000/svg">
<g clip-path="url(#clip0_3323_194)">
<path d="M29.0596 7.86035C22.4499 7.86035 17.2101 12.6753 17.21 18.4287C17.21 18.6401 17.2195 18.8516 17.2363 19.0674L17.2793 19.623L16.7598 19.8252C13.7331 21.0017 11.8096 23.644 11.8096 26.5137C11.8096 30.4836 15.4352 33.8486 20.0596 33.8486H47.0596C51.6856 33.8486 55.3095 30.4836 55.3096 26.5137C55.3096 23.0622 52.5647 20.0433 48.6768 19.3564L48.1338 19.2607L48.0635 18.7139C47.7494 16.2767 45.4543 14.3281 42.5596 14.3281C41.9676 14.3281 41.3812 14.4167 40.8076 14.5938L40.1953 14.7832L39.9131 14.207C38.0557 10.4096 33.8186 7.86035 29.0596 7.86035Z" fill="white" stroke="white" stroke-width="1.5"/>
</g>
<path d="M31.5174 27.8654C31.3434 27.8654 31.1629 27.8203 31.0018 27.7365C30.6602 27.5496 30.4475 27.1886 30.4475 26.8019V19.0547C30.4475 18.6615 30.6602 18.307 31.0018 18.1201C31.3434 17.9332 31.7624 17.9461 32.0911 18.1523L38.1754 22.0259C38.4848 22.2258 38.6717 22.5609 38.6717 22.9283C38.6717 23.2957 38.4848 23.6308 38.1754 23.8306L32.0911 27.7043C31.917 27.8074 31.7172 27.8654 31.5174 27.8654ZM31.5174 18.9515C31.4981 18.9515 31.4852 18.958 31.4659 18.9644C31.4336 18.9838 31.4143 19.016 31.4143 19.0547V26.8019C31.4143 26.8406 31.4336 26.8728 31.4659 26.8922C31.4981 26.9115 31.5368 26.9115 31.569 26.8857L37.6534 23.0121C37.692 22.9863 37.6985 22.9541 37.6985 22.9283C37.6985 22.9025 37.692 22.8703 37.6534 22.8445L31.569 18.9709C31.5561 18.958 31.5368 18.9515 31.5174 18.9515Z" fill="#2563EB" stroke="#2563EB" stroke-width="0.9"/>
<path d="M17.1001 51.286C17.1001 53.8967 14.9837 56.0132 12.3729 56.0132H12.1953C9.58458 56.0132 7.46814 53.8967 7.46814 51.286C7.46814 48.6752 9.58458 46.5588 12.1953 46.5588H12.3729C14.9837 46.5588 17.1001 48.6752 17.1001 51.286Z" fill="#2563EB"/>
<path d="M37.8154 51.014C37.8154 53.6248 35.699 55.7412 33.0882 55.7412H32.9107C30.2999 55.7412 28.1835 53.6248 28.1835 51.014C28.1835 48.4032 30.2999 46.2868 32.9107 46.2868H33.0882C35.699 46.2868 37.8154 48.4032 37.8154 51.014Z" fill="#2563EB"/>
<path d="M58.5303 51.014C58.5303 53.6248 56.4138 55.7412 53.8031 55.7412H53.6255C51.0148 55.7412 48.8983 53.6248 48.8983 51.014C48.8983 48.4032 51.0148 46.2868 53.6255 46.2868H53.8031C56.4138 46.2868 58.5303 48.4032 58.5303 51.014Z" fill="#2563EB"/>
<path d="M12.2847 56.1626C9.80327 56.1626 7.88257 53.3653 7.88257 50.9612C7.88257 48.5313 9.85483 46.5591 12.2847 46.5591C14.7146 46.5591 16.6869 48.5313 16.6869 50.9612C16.6869 53.3653 14.7662 56.1626 12.2847 56.1626ZM12.2847 47.5259C10.3898 47.5259 8.84937 49.0663 8.84937 50.9612C8.84937 51.9216 9.24253 52.998 9.89351 53.8358C10.5767 54.7124 11.4275 55.1958 12.2847 55.1958C13.1419 55.1958 13.9863 54.7124 14.6759 53.8358C15.3334 52.998 15.7201 51.9216 15.7201 50.9612C15.7201 49.0663 14.1796 47.5259 12.2847 47.5259Z" fill="white" stroke="white" stroke-width="0.9"/>
<path d="M18.382 65.1473H6.19387C5.73625 65.1473 5.31086 64.9475 5.02082 64.593C4.73078 64.2385 4.61477 63.7809 4.705 63.3361L5.4011 59.8105C5.63957 58.6053 6.52258 57.6449 7.70207 57.3098L10.5767 56.4912H14.012L16.8866 57.3098C18.0661 57.6449 18.9491 58.6053 19.1876 59.8105L19.8837 63.3361C19.9739 63.7809 19.8579 64.2385 19.5679 64.593C19.265 64.9475 18.8396 65.1473 18.382 65.1473ZM10.7056 57.4516L7.95989 58.2379C7.12844 58.4764 6.50969 59.1467 6.34211 59.9975L5.64602 63.523C5.61379 63.6842 5.65891 63.8518 5.76203 63.9807C5.86516 64.1096 6.01985 64.1805 6.18743 64.1805H18.382C18.5495 64.1805 18.7042 64.1096 18.8073 63.9807C18.9105 63.8518 18.9556 63.6842 18.9234 63.523L18.2273 59.9975C18.0597 59.1531 17.4409 58.4764 16.6095 58.2379L13.8638 57.4516H10.7056Z" fill="white" stroke="white" stroke-width="0.9"/>
<path d="M53.7151 56.1621C51.2337 56.1621 49.313 53.3648 49.313 50.9607C49.313 48.5309 51.2853 46.5586 53.7151 46.5586C54.8882 46.5586 55.9968 47.0162 56.8282 47.8477C57.6597 48.6791 58.1173 49.7812 58.1173 50.9607C58.1173 53.3648 56.1901 56.1621 53.7151 56.1621ZM53.7151 47.5254C51.8202 47.5254 50.2798 49.0658 50.2798 50.9607C50.2798 51.9211 50.673 52.9975 51.3239 53.8354C52.0071 54.7119 52.8579 55.1953 53.7151 55.1953C54.5724 55.1953 55.4167 54.7119 56.1064 53.8354C56.7638 52.9975 57.1505 51.9211 57.1505 50.9607C57.1505 50.0455 56.796 49.1818 56.145 48.5309C55.494 47.8799 54.6304 47.5254 53.7151 47.5254Z" fill="white" stroke="white" stroke-width="0.9"/>
<path d="M59.806 65.1473H47.6179C47.1603 65.1473 46.7349 64.9475 46.4449 64.593C46.1549 64.2385 46.0388 63.7809 46.1291 63.3361L46.8252 59.8105C47.0636 58.6053 47.9467 57.6449 49.1261 57.3098L52.0008 56.4912H55.4297L58.3043 57.3098C59.4838 57.6449 60.3668 58.6053 60.6052 59.8105L61.3013 63.3361C61.3916 63.7809 61.2756 64.2385 60.9855 64.593C60.689 64.9475 60.2636 65.1473 59.806 65.1473ZM52.1297 57.4516L49.3904 58.2379C48.559 58.4764 47.9402 59.1467 47.7726 59.9975L47.0765 63.523C47.0443 63.6842 47.0894 63.8518 47.1926 63.9807C47.2957 64.1096 47.4504 64.1805 47.6179 64.1805H59.8125C59.9801 64.1805 60.1347 64.1096 60.2379 63.9807C60.341 63.8518 60.3861 63.6842 60.3539 63.523L59.6578 59.9975C59.4902 59.1531 58.8715 58.4764 58.04 58.2379L55.2943 57.4516H52.1297Z" fill="white" stroke="white" stroke-width="0.9"/>
<path d="M32.9998 56.1621C30.5184 56.1621 28.5977 53.3648 28.5977 50.9607C28.5977 48.5309 30.5699 46.5586 32.9998 46.5586C35.4297 46.5586 37.402 48.5309 37.402 50.9607C37.402 53.3648 35.4812 56.1621 32.9998 56.1621ZM32.9998 47.5254C31.1049 47.5254 29.5645 49.0658 29.5645 50.9607C29.5645 51.9211 29.9576 52.9975 30.6086 53.8354C31.2918 54.7119 32.1426 55.1953 32.9998 55.1953C33.857 55.1953 34.7014 54.7119 35.391 53.8354C36.0484 52.9975 36.4352 51.9211 36.4352 50.9607C36.4352 49.0658 34.8947 47.5254 32.9998 47.5254Z" fill="white" stroke="white" stroke-width="0.9"/>
<path d="M39.0971 65.1473H26.9026C26.445 65.1473 26.0196 64.9475 25.7296 64.593C25.4395 64.2385 25.3235 63.7809 25.4137 63.3361L26.1098 59.8105C26.3483 58.6053 27.2313 57.6449 28.4108 57.3098L31.2854 56.4912H34.7208L37.5954 57.3098C38.7749 57.6449 39.6579 58.6053 39.8964 59.8105L40.5925 63.3361C40.6827 63.7809 40.5667 64.2385 40.2766 64.593C39.9802 64.9475 39.5548 65.1473 39.0971 65.1473ZM31.4208 57.4516L28.6815 58.2379C27.8501 58.4764 27.2313 59.1467 27.0637 59.9975L26.3612 63.523C26.329 63.6842 26.3741 63.8518 26.4772 63.9807C26.5803 64.1096 26.735 64.1805 26.9026 64.1805H39.0971C39.2647 64.1805 39.4194 64.1096 39.5225 63.9807C39.6257 63.8518 39.6708 63.6842 39.6385 63.523L38.9425 59.9975C38.7749 59.1531 38.1561 58.4764 37.3247 58.2379L34.579 57.4516H31.4208Z" fill="white" stroke="white" stroke-width="0.9"/>
<path d="M33.4834 44.0127H32.5166V42.4658H33.4834V44.0127ZM33.4834 40.9189H32.5166V39.3721H33.4834V40.9189ZM33.4834 37.8252H32.5166V36.2783H33.4834V37.8252Z" fill="white" stroke="white" stroke-width="0.9"/>
<path d="M50.6665 44.7282L49.4097 43.8259L49.9704 43.0395L51.2272 43.9419L50.6665 44.7282ZM48.1464 42.93L46.8896 42.0276L47.4503 41.2413L48.7071 42.1437L48.1464 42.93ZM45.6327 41.1317L44.3759 40.2294L44.9366 39.4431L46.1935 40.3454L45.6327 41.1317ZM43.1126 39.327L41.8558 38.4247L42.4165 37.6384L43.6733 38.5407L43.1126 39.327ZM40.5989 37.5288L39.355 36.6394L39.9157 35.853L41.1597 36.7425L40.5989 37.5288Z" fill="white" stroke="white" stroke-width="0.9"/>
<path d="M15.3332 44.7282L14.7725 43.9419L16.0293 43.0395L16.59 43.8259L15.3332 44.7282ZM17.8533 42.93L17.2926 42.1437L18.5494 41.2413L19.1102 42.0276L17.8533 42.93ZM20.367 41.1317L19.8062 40.3454L21.0631 39.4431L21.6238 40.2294L20.367 41.1317ZM22.8871 39.327L22.3264 38.5407L23.5832 37.6384L24.1439 38.4247L22.8871 39.327ZM25.4008 37.5288L24.84 36.7425L26.084 35.853L26.6447 36.6394L25.4008 37.5288Z" fill="white" stroke="white" stroke-width="0.9"/>
<defs>
<clipPath id="clip0_3323_194">
<rect width="45" height="40.4234" fill="white" transform="matrix(-1 0 0 1 56.0596 0.642578)"/>
</clipPath>
</defs>
</svg>
