<svg width="63" height="65" viewBox="0 0 63 65" fill="none" xmlns="http://www.w3.org/2000/svg">
<g clip-path="url(#clip0_3323_236)">
<path d="M40.7578 54.2344C40.7578 56.1179 39.2543 57.6504 37.4062 57.6504H21.6076C21.3131 57.6504 21.0303 57.769 20.8212 57.9803L17.7031 61.1298V58.7891C17.7031 58.1602 17.2029 57.6504 16.5859 57.6504C14.7379 57.6504 13.2344 56.1179 13.2344 54.2344V38.0859C13.2344 36.2024 14.7379 34.6699 16.5859 34.6699H31.6958V32.3926H16.5859C13.5059 32.3926 11 34.9466 11 38.0859V54.2344C11 56.9837 12.9223 59.2843 15.4688 59.8133V63.8613C15.4688 64.3209 15.7398 64.7355 16.1561 64.9123C16.2951 64.9713 16.441 65 16.5857 65C16.8747 65 17.159 64.8856 17.3723 64.67L22.0674 59.9277H37.4062C40.4863 59.9277 42.9922 57.3737 42.9922 54.2344V43.9062H40.7578V54.2344Z" fill="white"/>
<path d="M52.5708 23.8341L49.2123 20.4111C48.8928 20.0854 48.4124 19.9882 47.9948 20.1643C47.5774 20.3406 47.3052 20.7557 47.3052 21.2163V28.6863C46.5692 28.213 45.6989 27.938 44.7661 27.938C42.134 27.938 39.9927 30.1205 39.9927 32.8032C39.9927 35.4859 42.134 37.6685 44.7661 37.6685C47.3982 37.6685 49.5396 35.4859 49.5396 32.8032V23.9654L50.9909 25.4446C51.4273 25.8893 52.1345 25.8893 52.5709 25.4446C53.0071 24.9997 53.0071 24.2788 52.5708 23.8341ZM44.766 35.391C43.366 35.391 42.2269 34.2301 42.2269 32.8031C42.2269 31.3762 43.366 30.2152 44.766 30.2152C46.166 30.2152 47.3051 31.3762 47.3051 32.8031C47.3051 34.2301 46.166 35.391 44.766 35.391Z" fill="white"/>
<path d="M32.8559 43.3982L25.3583 38.9861C24.3787 38.4096 23.2088 38.4095 22.229 38.9861C21.2493 39.5627 20.6643 40.5953 20.6643 41.7483V50.5723C20.6643 51.7254 21.2493 52.7579 22.229 53.3345C22.7189 53.6228 23.2562 53.767 23.7937 53.7669C24.331 53.7669 24.8685 53.6227 25.3583 53.3345L32.8559 48.9225C33.8355 48.346 34.4205 47.3133 34.4205 46.1603C34.4205 45.0072 33.8355 43.9746 32.8559 43.3982ZM31.7387 46.9503L24.2411 51.3623C23.8371 51.6001 23.4806 51.4415 23.3462 51.3623C23.2116 51.2831 22.8987 51.0476 22.8987 50.5723V41.7483C22.8987 41.273 23.2116 41.0375 23.3462 40.9583C23.428 40.9102 23.5916 40.8328 23.7982 40.8328C23.9315 40.8328 24.0828 40.8651 24.2411 40.9583L31.7387 45.3703C32.1426 45.608 32.1862 46.002 32.1862 46.1603C32.1862 46.3185 32.1425 46.7126 31.7387 46.9503Z" fill="white"/>
<path d="M46.4453 12C37.317 12 29.8906 19.5693 29.8906 28.873C29.8906 38.1768 37.317 45.7461 46.4453 45.7461C48.4212 45.7461 50.3457 45.3969 52.1768 44.7072L56.0183 48.5874C56.2318 48.803 56.5158 48.9174 56.8049 48.9174C56.9497 48.9174 57.0957 48.8887 57.2345 48.8297C57.6508 48.6529 57.9219 48.2383 57.9219 47.7787V41.033C61.1551 37.8602 63 33.4575 63 28.8732C63 19.5693 55.5736 12 46.4453 12ZM56.0547 39.6945C55.8209 39.9103 55.6875 40.2169 55.6875 40.5384V45.0471L53.2312 42.5661C53.0177 42.3505 52.7336 42.2361 52.4445 42.2361C52.2982 42.2361 52.1505 42.2655 52.0103 42.3258C50.2479 43.0842 48.3755 43.4688 46.4453 43.4688C38.549 43.4688 32.125 36.9212 32.125 28.873C32.125 20.8249 38.549 14.2773 46.4453 14.2773C54.3416 14.2773 60.7656 20.8249 60.7656 28.873C60.7656 32.9866 59.0486 36.9308 56.0547 39.6945Z" fill="white"/>
<path d="M29.8906 32.3926H9.16992V6.54523H29.8906V32.3926Z" fill="white"/>
</g>
<path fill-rule="evenodd" clip-rule="evenodd" d="M11.8365 10.4061H9.84374C8.46674 10.4061 7.32374 11.4999 7.22549 12.9121L5.94 31.4121C5.88825 32.159 6.14024 32.8944 6.63674 33.4424C7.13399 33.9905 7.82925 34.3019 8.55825 34.3019H29.3362C30.0652 34.3019 30.7605 33.9905 31.2577 33.4424C31.7542 32.8944 32.0062 32.159 31.9545 31.4121L30.669 12.9121C30.5707 11.4999 29.4277 10.4061 28.0507 10.4061H26.0722V10.0207C26.0722 5.97611 22.8825 2.69775 18.9472 2.69775C15.156 2.69775 11.652 5.80113 11.8222 10.0207C11.8275 10.1486 11.832 10.2774 11.8365 10.4061ZM26.0722 12.7186V18.4998C26.0722 19.1381 25.5682 19.6561 24.9472 19.6561C24.3262 19.6561 23.8222 19.1381 23.8222 18.4998V12.7186H14.0722V18.4998C14.0722 19.1381 13.5682 19.6561 12.9472 19.6561C12.3262 19.6561 11.8222 19.1381 11.8222 18.4998C11.8222 18.4998 11.9197 15.7981 11.8875 12.7186H9.84374C9.64724 12.7186 9.48375 12.8751 9.47025 13.0762L8.18398 31.5762C8.17648 31.6834 8.2125 31.7882 8.28375 31.8669C8.355 31.9447 8.454 31.9894 8.55825 31.9894H29.3362C29.4405 31.9894 29.5395 31.9447 29.6107 31.8669C29.682 31.7882 29.718 31.6834 29.7105 31.5762L28.4242 13.0762C28.4107 12.8751 28.2472 12.7186 28.0507 12.7186H26.0722ZM23.8222 10.4061V10.0207C23.8222 7.25338 21.6397 5.01025 18.9472 5.01025C16.2547 5.01025 14.0722 7.25338 14.0722 10.0207V10.4061H23.8222Z" fill="white"/>
<defs>
<clipPath id="clip0_3323_236">
<rect width="52" height="53" fill="white" transform="translate(11 12)"/>
</clipPath>
</defs>
</svg>
