<svg width="52" height="53" viewBox="0 0 52 53" fill="none" xmlns="http://www.w3.org/2000/svg">
<g clip-path="url(#clip0_3323_260)">
<path d="M1.01599 1.03516H50.9843V31.779H1.01599V1.03516Z" fill="#2563EB"/>
<path d="M50.9843 42.6484V44.2011C49.6952 44.2011 40.0945 44.2011 38.7969 44.2011V42.6484C38.7969 40.9332 40.1608 39.543 41.8437 39.543H47.9374C49.6203 39.543 50.9843 40.9332 50.9843 42.6484Z" fill="white"/>
<path d="M50.984 34.8846C49.695 34.8846 40.0943 34.8846 38.7966 34.8846C38.7966 34.1332 38.7966 29.4301 38.7966 28.6738C38.7966 25.2433 41.5246 22.4629 44.8903 22.4629C48.2561 22.4629 50.984 25.2433 50.984 28.6738V34.8846Z" fill="#F2F2F2"/>
<path d="M32.0936 42.6484V44.2011C30.8046 44.2011 21.2039 44.2011 19.9062 44.2011V42.6484C19.9062 40.9332 21.2702 39.543 22.9531 39.543H29.0468C30.7297 39.543 32.0936 40.9332 32.0936 42.6484Z" fill="white"/>
<path d="M32.0936 34.8846C30.5572 34.8846 21.4408 34.8846 19.9062 34.8846C19.9062 34.1332 19.9062 29.4301 19.9062 28.6738C19.9062 25.2433 22.6342 22.4629 25.9999 22.4629C29.3657 22.4629 32.0936 25.2433 32.0936 28.6738V34.8846Z" fill="#F2F2F2"/>
<path d="M30.5703 12.5254L22.9531 17.1836V7.86719L30.5703 12.5254Z" fill="#EEFAFF"/>
<path d="M13.2033 42.6479V44.2006C11.9142 44.2006 2.31352 44.2006 1.01587 44.2006V42.6479C1.01587 40.9327 2.37984 39.5425 4.06271 39.5425H10.1564C11.8393 39.5425 13.2033 40.9327 13.2033 42.6479Z" fill="white"/>
<path d="M13.2033 34.8846C11.6668 34.8846 2.55046 34.8846 1.01587 34.8846C1.01587 34.1332 1.01587 29.4301 1.01587 28.6738C1.01587 25.2433 3.74381 22.4629 7.10956 22.4629C10.4753 22.4629 13.2033 25.2433 13.2033 28.6738V34.8846Z" fill="#F2F2F2"/>
<path d="M49.4374 45.2359H50.9842C51.5451 45.2359 51.9998 44.7723 51.9998 44.2007V42.648C51.9998 40.7222 50.7031 39.0993 48.9529 38.6385V35.9196H50.9842C51.5451 35.9196 51.9998 35.456 51.9998 34.8844C51.9998 34.2957 51.9998 2.50681 51.9998 1.03515C51.9998 0.463538 51.5451 0 50.9842 0H30.5703C30.0094 0 29.5547 0.463538 29.5547 1.03515C29.5547 1.60675 30.0094 2.07029 30.5703 2.07029H49.9685V23.6093C48.6771 22.2643 46.8782 21.4275 44.8905 21.4275C40.9704 21.4275 37.7812 24.6781 37.7812 28.6735V30.7438H33.1093V28.6735C33.1093 24.6781 29.9201 21.4275 26 21.4275C22.08 21.4275 18.8907 24.6781 18.8907 28.6735V30.7438H14.2189V28.6735C14.2189 24.6781 11.0297 21.4275 7.10959 21.4275C5.12183 21.4275 3.32297 22.2643 2.03152 23.6093V2.07029H21.4298C21.9907 2.07029 22.4454 1.60675 22.4454 1.03515C22.4454 0.463538 21.9907 0 21.4298 0H1.0159C0.454979 0 0.000288332 0.463538 0.000288332 1.03515V34.8844C0.000288332 35.456 0.454979 35.9196 1.0159 35.9196H3.04713V38.6385C1.29692 39.0993 0.000288332 40.7222 0.000288332 42.648V44.2007C0.000288332 44.7723 0.454979 45.2359 1.0159 45.2359H2.56269L0.0729048 51.5799C-0.135398 52.1107 0.117897 52.7131 0.638704 52.9255C1.16286 53.1391 1.75192 52.8762 1.9589 52.3488L4.75042 45.2359H9.46897L12.2605 52.3488C12.4691 52.8802 13.06 53.1375 13.5807 52.9255C14.1015 52.7131 14.3548 52.1107 14.1465 51.5799L11.6568 45.2359H13.2036C13.7645 45.2359 14.2192 44.7723 14.2192 44.2007V42.648C14.2192 40.7222 12.9226 39.0993 11.1724 38.6385V35.9196H13.2036C13.7645 35.9196 14.2192 35.456 14.2192 34.8844V32.8141H18.891V34.8844C18.891 35.456 19.3457 35.9196 19.9066 35.9196H21.9379V38.6385C20.1877 39.0993 18.891 40.7222 18.891 42.648V44.2007C18.891 44.7723 19.3457 45.2359 19.9066 45.2359H21.4534L18.9637 51.5799C18.7554 52.1107 19.0087 52.7131 19.5295 52.9255C20.0537 53.1391 20.6428 52.8762 20.8497 52.3488L23.6413 45.2359H28.3598L31.1513 52.3488C31.3599 52.8802 31.9508 53.1375 32.4715 52.9255C32.9923 52.7131 33.2456 52.1107 33.0373 51.5799L30.5477 45.2359H32.0944C32.6554 45.2359 33.1101 44.7723 33.1101 44.2007V42.648C33.1101 40.7222 31.8134 39.0993 30.0632 38.6385V35.9196H32.0944C32.6554 35.9196 33.1101 35.456 33.1101 34.8844V32.8141H37.7819V34.8844C37.7819 35.456 38.2366 35.9196 38.7975 35.9196H40.8287V38.6385C39.0785 39.0993 37.7819 40.7222 37.7819 42.648V44.2007C37.7819 44.7723 38.2366 45.2359 38.7975 45.2359H40.3443L37.8546 51.5799C37.6463 52.1107 37.8996 52.7131 38.4204 52.9255C38.9446 53.1391 39.5336 52.8762 39.7406 52.3488L42.5321 45.2359H47.2507L50.0422 52.3488C50.2508 52.8802 50.8417 53.1375 51.3624 52.9255C51.8832 52.7131 52.1365 52.1107 51.9282 51.5799L49.4374 45.2359ZM12.1877 42.648V43.1656C10.8875 43.1656 3.26194 43.1656 2.03152 43.1656V42.648C2.03152 41.5065 2.94273 40.5777 4.06275 40.5777H10.1564C11.2764 40.5777 12.1877 41.5064 12.1877 42.648ZM9.14082 38.5074H5.07836V35.9196H9.14082V38.5074ZM12.1877 33.8493H2.03152V28.6735C2.03152 25.8196 4.30954 23.4978 7.10959 23.4978C9.90964 23.4978 12.1877 25.8196 12.1877 28.6735V33.8493ZM31.0781 42.648V43.1656C29.7779 43.1656 22.1524 43.1656 20.922 43.1656V42.648C20.922 41.5065 21.8332 40.5777 22.9532 40.5777H29.0469C30.1668 40.5777 31.0781 41.5064 31.0781 42.648ZM28.0313 38.5074H23.9688V35.9196H28.0313V38.5074ZM31.0781 33.8493H20.922V28.6735C20.922 25.8196 23.2 23.4978 26 23.4978C28.8001 23.4978 31.0781 25.8196 31.0781 28.6735V33.8493ZM39.8124 28.6735C39.8124 25.8196 42.0904 23.4978 44.8905 23.4978C47.6905 23.4978 49.9685 25.8196 49.9685 28.6735V33.8493H39.8124V28.6735ZM46.9217 35.9196V38.5074H42.8592V35.9196H46.9217ZM39.8124 42.648C39.8124 41.5065 40.7236 40.5777 41.8436 40.5777H47.9373C49.0573 40.5777 49.9685 41.5065 49.9685 42.648V43.1656C48.6684 43.1656 41.0428 43.1656 39.8124 43.1656V42.648Z" fill="white"/>
<path d="M22.4527 6.96645C22.1343 7.15019 21.9375 7.49437 21.9375 7.86723V17.1836C21.9375 17.5565 22.1343 17.9006 22.4527 18.0843C22.7709 18.2681 23.1619 18.263 23.4756 18.0712L31.0928 13.413C31.3987 13.2259 31.5858 12.8889 31.5858 12.5254C31.5858 12.1618 31.3987 11.8248 31.0928 11.6378L23.4756 6.9796C23.1618 6.78768 22.771 6.78261 22.4527 6.96645ZM23.9687 9.69561L28.5962 12.5255L23.9687 15.3554V9.69561Z" fill="white"/>
<path d="M26 2.07031C26.5609 2.07031 27.0156 1.60686 27.0156 1.03516C27.0156 0.463455 26.5609 0 26 0C25.4391 0 24.9844 0.463455 24.9844 1.03516C24.9844 1.60686 25.4391 2.07031 26 2.07031Z" fill="white"/>
</g>
<defs>
<clipPath id="clip0_3323_260">
<rect width="52" height="53" fill="white"/>
</clipPath>
</defs>
</svg>
