<svg width="324" height="162" viewBox="0 0 324 162" fill="none" xmlns="http://www.w3.org/2000/svg">
<path d="M158.823 133.3C156.957 135.167 154.223 136.567 150.623 137.5C147.157 138.567 142.957 139.1 138.023 139.1C133.09 139.1 128.423 138.367 124.023 136.9C119.623 135.433 116.023 131.9 113.223 126.3L93.4234 85.9C91.4234 81.7667 89.6234 77.9 88.0234 74.3C86.4234 70.5667 84.6901 66.3 82.8234 61.5L81.6234 61.7C82.1568 68.9 82.4234 76.2333 82.4234 83.7C82.5568 91.1667 82.6234 98.5 82.6234 105.7V136.7C81.1568 137.1 78.8901 137.5 75.8234 137.9C72.8901 138.3 69.9568 138.5 67.0234 138.5C64.0901 138.5 61.4901 138.3 59.2234 137.9C56.9568 137.5 55.0901 136.7 53.6234 135.5C52.1568 134.3 51.0234 132.7 50.2234 130.7C49.4234 128.567 49.0234 125.833 49.0234 122.5V22.5C50.8901 19.8333 53.7568 17.8333 57.6234 16.5C61.4901 15.1667 65.6234 14.5 70.0234 14.5C74.9568 14.5 79.6234 15.3 84.0234 16.9C88.5568 18.3667 92.1568 21.8333 94.8234 27.3L114.823 67.7C116.823 71.8333 118.623 75.7667 120.223 79.5C121.823 83.1 123.557 87.3 125.423 92.1L126.423 91.9C125.89 84.7 125.557 77.5 125.423 70.3C125.29 63.1 125.223 55.9 125.223 48.7V16.3C126.69 15.9 128.89 15.5 131.823 15.1C134.89 14.7 137.89 14.5 140.823 14.5C146.69 14.5 151.157 15.5667 154.223 17.7C157.29 19.7 158.823 23.9667 158.823 30.5V133.3Z" fill="white"/>
<path d="M230.166 72.5C235.766 72.5 240.032 71.2333 242.966 68.7C246.032 66.0333 247.566 62.0333 247.566 56.7C247.566 51.6333 245.966 47.7667 242.766 45.1C239.699 42.3 235.166 40.9 229.166 40.9C227.032 40.9 225.232 40.9667 223.766 41.1C222.432 41.1 221.032 41.2333 219.566 41.5V72.5H230.166ZM219.766 136.7C218.299 137.1 215.966 137.5 212.766 137.9C209.699 138.3 206.632 138.5 203.566 138.5C200.499 138.5 197.766 138.233 195.366 137.7C193.099 137.3 191.166 136.5 189.566 135.3C187.966 134.1 186.766 132.433 185.966 130.3C185.166 128.167 184.766 125.367 184.766 121.9V27.7C184.766 24.9 185.499 22.7667 186.966 21.3C188.566 19.7 190.699 18.4333 193.366 17.5C197.899 15.9 203.032 14.7667 208.766 14.1C214.632 13.3 220.499 12.9 226.366 12.9C244.766 12.9 258.832 16.8333 268.566 24.7C278.299 32.5667 283.166 43.2333 283.166 56.7C283.166 63.2333 282.099 69.1667 279.966 74.5C277.966 79.7 274.899 84.2333 270.766 88.1C266.766 91.8333 261.632 94.7667 255.366 96.9C249.232 98.9 242.099 99.9 233.966 99.9H219.766V136.7Z" fill="#2563EB"/>
</svg>
