<svg width="574" height="169" viewBox="0 0 574 169" fill="none" xmlns="http://www.w3.org/2000/svg">
<path d="M78.467 118.312C77.2723 119.507 75.523 120.403 73.219 121C71.0003 121.683 68.3123 122.024 65.155 122.024C61.9977 122.024 59.011 121.555 56.195 120.616C53.379 119.677 51.075 117.416 49.283 113.832L36.611 87.976C35.331 85.3307 34.179 82.856 33.155 80.552C32.131 78.1627 31.0217 75.432 29.827 72.36L29.059 72.488C29.4003 77.096 29.571 81.7893 29.571 86.568C29.6563 91.3467 29.699 96.04 29.699 100.648V120.488C28.7603 120.744 27.3097 121 25.347 121.256C23.4697 121.512 21.5923 121.64 19.715 121.64C17.8377 121.64 16.1737 121.512 14.723 121.256C13.2723 121 12.0777 120.488 11.139 119.72C10.2003 118.952 9.475 117.928 8.963 116.648C8.451 115.283 8.195 113.533 8.195 111.4V47.4C9.38967 45.6933 11.2243 44.4133 13.699 43.56C16.1737 42.7067 18.819 42.28 21.635 42.28C24.7923 42.28 27.779 42.792 30.595 43.816C33.4963 44.7547 35.8003 46.9733 37.507 50.472L50.307 76.328C51.587 78.9733 52.739 81.4907 53.763 83.88C54.787 86.184 55.8963 88.872 57.091 91.944L57.731 91.816C57.3897 87.208 57.1763 82.6 57.091 77.992C57.0057 73.384 56.963 68.776 56.963 64.168V43.432C57.9017 43.176 59.3097 42.92 61.187 42.664C63.1497 42.408 65.0697 42.28 66.947 42.28C70.7017 42.28 73.5603 42.9627 75.523 44.328C77.4857 45.608 78.467 48.3387 78.467 52.52V118.312ZM117.47 120.488C116.531 120.744 115.038 121 112.99 121.256C111.027 121.512 109.065 121.64 107.102 121.64C105.139 121.64 103.39 121.469 101.854 121.128C100.403 120.872 99.166 120.36 98.142 119.592C97.118 118.824 96.35 117.757 95.838 116.392C95.326 115.027 95.07 113.235 95.07 111.016V43.432C96.0087 43.2613 97.502 43.048 99.55 42.792C101.598 42.4507 103.561 42.28 105.438 42.28C107.401 42.28 109.107 42.4507 110.558 42.792C112.094 43.048 113.374 43.56 114.398 44.328C115.422 45.096 116.19 46.1627 116.702 47.528C117.214 48.8933 117.47 50.6853 117.47 52.904V120.488ZM130.486 61.352C129.889 60.4133 129.334 59.1333 128.822 57.512C128.31 55.8907 128.054 54.184 128.054 52.392C128.054 49.064 128.779 46.6747 130.23 45.224C131.766 43.7733 133.729 43.048 136.118 43.048H191.926C192.523 43.9867 193.078 45.2667 193.59 46.888C194.102 48.5093 194.358 50.216 194.358 52.008C194.358 55.336 193.59 57.7253 192.054 59.176C190.603 60.6267 188.683 61.352 186.294 61.352H172.086V120.488C171.147 120.744 169.654 121 167.606 121.256C165.643 121.512 163.681 121.64 161.718 121.64C159.755 121.64 158.006 121.469 156.47 121.128C155.019 120.872 153.782 120.36 152.758 119.592C151.734 118.824 150.966 117.757 150.454 116.392C149.942 115.027 149.686 113.235 149.686 111.016V61.352H130.486ZM253.534 118.44C252.339 119.464 250.462 120.36 247.902 121.128C245.427 121.896 242.697 122.28 239.71 122.28C236.126 122.28 233.054 121.768 230.494 120.744C227.934 119.635 226.185 118.141 225.246 116.264C224.307 114.301 223.155 111.784 221.79 108.712C220.425 105.555 218.974 102.056 217.438 98.216C215.987 94.376 214.451 90.3227 212.83 86.056C211.294 81.704 209.801 77.3093 208.35 72.872C206.899 68.4347 205.534 64.0827 204.254 59.816C202.974 55.5493 201.865 51.5387 200.926 47.784C202.121 46.5893 203.827 45.5227 206.046 44.584C208.35 43.56 210.782 43.048 213.342 43.048C216.499 43.048 219.059 43.7307 221.022 45.096C223.07 46.376 224.563 48.808 225.502 52.392C227.806 60.7547 230.11 68.776 232.414 76.456C234.803 84.0507 237.278 91.9867 239.838 100.264H240.606C242.91 92.2427 245.257 83.496 247.646 74.024C250.121 64.552 252.467 55.1227 254.686 45.736C256.222 44.968 257.843 44.328 259.55 43.816C261.342 43.304 263.347 43.048 265.566 43.048C268.723 43.048 271.411 43.7733 273.63 45.224C275.849 46.5893 276.958 48.8933 276.958 52.136C276.958 54.0133 276.489 56.744 275.55 60.328C274.697 63.912 273.545 67.9653 272.094 72.488C270.729 76.9253 269.15 81.576 267.358 86.44C265.651 91.304 263.902 95.912 262.11 100.264C260.403 104.531 258.782 108.328 257.246 111.656C255.71 114.899 254.473 117.16 253.534 118.44Z" fill="white"/>
<path d="M317.251 79.4C320.835 79.4 323.566 78.5893 325.443 76.968C327.406 75.2613 328.387 72.7013 328.387 69.288C328.387 66.0453 327.363 63.5707 325.315 61.864C323.352 60.072 320.451 59.176 316.611 59.176C315.246 59.176 314.094 59.2187 313.155 59.304C312.302 59.304 311.406 59.3893 310.467 59.56V79.4H317.251ZM310.595 120.488C309.656 120.744 308.163 121 306.115 121.256C304.152 121.512 302.19 121.64 300.227 121.64C298.264 121.64 296.515 121.469 294.979 121.128C293.528 120.872 292.291 120.36 291.267 119.592C290.243 118.824 289.475 117.757 288.963 116.392C288.451 115.027 288.195 113.235 288.195 111.016V50.728C288.195 48.936 288.664 47.5707 289.603 46.632C290.627 45.608 291.992 44.7973 293.699 44.2C296.6 43.176 299.886 42.4507 303.555 42.024C307.31 41.512 311.064 41.256 314.819 41.256C326.595 41.256 335.598 43.7733 341.827 48.808C348.056 53.8427 351.171 60.6693 351.171 69.288C351.171 73.4693 350.488 77.2667 349.123 80.68C347.843 84.008 345.88 86.9093 343.235 89.384C340.675 91.7733 337.39 93.6507 333.379 95.016C329.454 96.296 324.888 96.936 319.683 96.936H310.595V120.488ZM374.474 121.384C370.805 121.384 367.903 120.317 365.77 118.184C363.637 116.051 362.57 113.149 362.57 109.48V43.304C363.509 43.1333 365.002 42.92 367.05 42.664C369.098 42.3227 371.061 42.152 372.938 42.152C374.901 42.152 376.607 42.3227 378.058 42.664C379.594 42.92 380.874 43.432 381.898 44.2C382.922 44.968 383.69 46.0347 384.202 47.4C384.714 48.7653 384.97 50.5573 384.97 52.776V103.336H414.282C414.879 104.275 415.434 105.555 415.946 107.176C416.458 108.712 416.714 110.333 416.714 112.04C416.714 115.453 415.989 117.885 414.538 119.336C413.087 120.701 411.167 121.384 408.778 121.384H374.474ZM495.681 92.328C495.681 96.936 494.87 101.16 493.249 105C491.713 108.755 489.452 111.997 486.465 114.728C483.478 117.373 479.852 119.421 475.585 120.872C471.318 122.323 466.497 123.048 461.121 123.048C455.745 123.048 450.924 122.323 446.657 120.872C442.39 119.421 438.764 117.373 435.777 114.728C432.79 111.997 430.486 108.755 428.865 105C427.329 101.16 426.561 96.936 426.561 92.328V43.432C427.5 43.2613 428.993 43.048 431.041 42.792C433.089 42.4507 435.052 42.28 436.929 42.28C438.892 42.28 440.598 42.4507 442.049 42.792C443.585 43.048 444.865 43.56 445.889 44.328C446.913 45.096 447.681 46.1627 448.193 47.528C448.705 48.8933 448.961 50.6853 448.961 52.904V91.944C448.961 96.04 450.07 99.24 452.289 101.544C454.593 103.848 457.537 105 461.121 105C464.79 105 467.734 103.848 469.953 101.544C472.172 99.24 473.281 96.04 473.281 91.944V43.432C474.22 43.2613 475.713 43.048 477.761 42.792C479.809 42.4507 481.772 42.28 483.649 42.28C485.612 42.28 487.318 42.4507 488.769 42.792C490.305 43.048 491.585 43.56 492.609 44.328C493.633 45.096 494.401 46.1627 494.913 47.528C495.425 48.8933 495.681 50.6853 495.681 52.904V92.328ZM533.961 90.152C530.206 88.872 526.793 87.592 523.721 86.312C520.649 84.9467 518.004 83.3253 515.785 81.448C513.566 79.5707 511.817 77.352 510.537 74.792C509.342 72.1467 508.745 68.9467 508.745 65.192C508.745 57.9387 511.518 52.136 517.065 47.784C522.697 43.432 530.548 41.256 540.617 41.256C544.286 41.256 547.7 41.512 550.857 42.024C554.014 42.536 556.702 43.3467 558.921 44.456C561.225 45.48 563.017 46.8453 564.297 48.552C565.577 50.1733 566.217 52.0933 566.217 54.312C566.217 56.5307 565.705 58.4507 564.681 60.072C563.657 61.608 562.42 62.9307 560.969 64.04C559.092 62.8453 556.574 61.8213 553.417 60.968C550.26 60.0293 546.804 59.56 543.049 59.56C539.209 59.56 536.393 60.1147 534.601 61.224C532.809 62.248 531.913 63.5707 531.913 65.192C531.913 66.472 532.468 67.5387 533.577 68.392C534.686 69.16 536.35 69.8853 538.569 70.568L545.353 72.744C553.374 75.304 559.518 78.5893 563.785 82.6C568.137 86.5253 570.313 91.9013 570.313 98.728C570.313 105.981 567.454 111.869 561.737 116.392C556.02 120.829 547.614 123.048 536.521 123.048C532.596 123.048 528.926 122.707 525.513 122.024C522.185 121.427 519.241 120.531 516.681 119.336C514.206 118.056 512.244 116.52 510.793 114.728C509.428 112.851 508.745 110.717 508.745 108.328C508.745 105.853 509.47 103.763 510.921 102.056C512.372 100.264 513.95 98.8987 515.657 97.96C518.046 99.8373 520.948 101.459 524.361 102.824C527.86 104.189 531.657 104.872 535.753 104.872C539.934 104.872 542.878 104.232 544.585 102.952C546.292 101.672 547.145 100.179 547.145 98.472C547.145 96.7653 546.462 95.4853 545.097 94.632C543.732 93.6933 541.812 92.7973 539.337 91.944L533.961 90.152Z" fill="#2563EB"/>
</svg>
